<svg width="32" height="32" viewBox="0 0 32 32" fill="none" xmlns="http://www.w3.org/2000/svg">
<g clip-path="url(#clip0_3_157)">
<path d="M30.0001 16.2711V6.26495C15.7985 11.8159 10.6062 16.0529 12.0186 29.417C12.0884 30.0781 12.482 30.6719 13.0852 30.9514C14.2064 31.4709 15.2179 31.7565 16.0001 31.7565C20.0001 31.7565 30.0001 24.2849 30.0001 16.2711Z" fill="url(#paint0_linear_3_157)"/>
<path d="M30.0001 16.2711V6.26495C15.7985 11.8159 10.6062 16.0529 12.0186 29.417C12.0884 30.0781 12.482 30.6719 13.0852 30.9514C14.2064 31.4709 15.2179 31.7565 16.0001 31.7565C20.0001 31.7565 30.0001 24.2849 30.0001 16.2711Z" fill="url(#paint1_radial_3_157)" fill-opacity="0.6"/>
<path d="M16.0004 0.243347C18.6924 0.243347 24.1021 1.60452 27.3521 2.49469C27.6558 2.57788 27.9407 2.65851 28.2027 2.73448C29.2834 3.04781 30.0004 4.04718 30.0004 5.17234V6.82723C29.6792 14.1996 27.3167 16.3442 20.7227 21.6536C19.8567 22.42 18.9667 23.149 18.0631 23.889C16.7683 24.9495 15.4457 26.0328 14.1261 27.2814C13.6223 27.7582 13.3079 28.4332 13.3079 29.1817C13.3079 30.3064 14.0177 31.2653 15.0138 31.6349C14.771 31.5806 14.5158 31.5085 14.2504 31.4196C11.8388 30.6113 8.58328 28.4093 6.03448 25.4852C4.02496 12.9641 7.96366 6.82723 16.0004 0.243347Z" fill="url(#paint2_radial_3_157)"/>
<path d="M16.0004 0.243347C18.6924 0.243347 24.1021 1.60452 27.3521 2.49469C27.6558 2.57788 27.9407 2.65851 28.2027 2.73448C29.2834 3.04781 30.0004 4.04718 30.0004 5.17234V6.82723C29.6792 14.1996 27.3167 16.3442 20.7227 21.6536C19.8567 22.42 18.9667 23.149 18.0631 23.889C16.7683 24.9495 15.4457 26.0328 14.1261 27.2814C13.6223 27.7582 13.3079 28.4332 13.3079 29.1817C13.3079 30.3064 14.0177 31.2653 15.0138 31.6349C14.771 31.5806 14.5158 31.5085 14.2504 31.4196C11.8388 30.6113 8.58328 28.4093 6.03448 25.4852C4.02496 12.9641 7.96366 6.82723 16.0004 0.243347Z" fill="url(#paint3_radial_3_157)" fill-opacity="0.7"/>
<path d="M16.0004 0.243347C18.6924 0.243347 24.1021 1.60452 27.3521 2.49469C27.6558 2.57788 27.9407 2.65851 28.2027 2.73448C29.2834 3.04781 30.0004 4.04718 30.0004 5.17234V6.82723C29.6792 14.1996 27.3167 16.3442 20.7227 21.6536C19.8567 22.42 18.9667 23.149 18.0631 23.889C16.7683 24.9495 15.4457 26.0328 14.1261 27.2814C13.6223 27.7582 13.3079 28.4332 13.3079 29.1817C13.3079 30.3064 14.0177 31.2653 15.0138 31.6349C14.771 31.5806 14.5158 31.5085 14.2504 31.4196C11.8388 30.6113 8.58328 28.4093 6.03448 25.4852C4.02496 12.9641 7.96366 6.82723 16.0004 0.243347Z" fill="url(#paint4_radial_3_157)" fill-opacity="0.7"/>
<path d="M16.0004 0.243347C18.6924 0.243347 24.1021 1.60452 27.3521 2.49469C27.6558 2.57788 27.9407 2.65851 28.2027 2.73448C29.2834 3.04781 30.0004 4.04718 30.0004 5.17234V6.82723C29.6792 14.1996 27.3167 16.3442 20.7227 21.6536C19.8567 22.42 18.9667 23.149 18.0631 23.889C16.7683 24.9495 15.4457 26.0328 14.1261 27.2814C13.6223 27.7582 13.3079 28.4332 13.3079 29.1817C13.3079 30.3064 14.0177 31.2653 15.0138 31.6349C14.771 31.5806 14.5158 31.5085 14.2504 31.4196C11.8388 30.6113 8.58328 28.4093 6.03448 25.4852C4.02496 12.9641 7.96366 6.82723 16.0004 0.243347Z" fill="url(#paint5_radial_3_157)" fill-opacity="0.5"/>
<path d="M3.87344 2.70927C6.96437 1.8444 13.0805 0.243378 16.0001 0.243378C16.2104 0.243378 16.4372 0.25188 16.6783 0.267991C19.3472 0.525671 21.4337 2.77479 21.4337 5.51122C21.4337 6.50481 21.1586 7.43413 20.6804 8.22722C19.6583 10.264 17.9854 11.8648 15.4395 13.9608C14.7082 14.5628 13.8697 15.2274 13.0338 15.8899C12.2438 16.516 11.456 17.1404 10.7632 17.7084C9.08033 19.0883 8.05174 19.9317 7.48604 20.99C6.94744 21.8163 6.63444 22.803 6.63444 23.8629C6.63444 25.4145 7.30531 26.8095 8.37281 27.7736C8.40672 27.8116 8.44103 27.8486 8.47571 27.8847C8.48507 27.8986 8.49426 27.9124 8.50329 27.9263C8.16464 27.6366 7.82937 27.3337 7.50013 27.0188C4.50012 24.1492 2.00012 20.2778 2.00012 16.2709V5.20013L2.00012 5.19957C2.00037 4.04029 2.757 3.02166 3.87344 2.70927Z" fill="url(#paint6_radial_3_157)"/>
<path d="M3.87344 2.70927C6.96437 1.8444 13.0805 0.243378 16.0001 0.243378C16.2104 0.243378 16.4372 0.25188 16.6783 0.267991C19.3472 0.525671 21.4337 2.77479 21.4337 5.51122C21.4337 6.50481 21.1586 7.43413 20.6804 8.22722C19.6583 10.264 17.9854 11.8648 15.4395 13.9608C14.7082 14.5628 13.8697 15.2274 13.0338 15.8899C12.2438 16.516 11.456 17.1404 10.7632 17.7084C9.08033 19.0883 8.05174 19.9317 7.48604 20.99C6.94744 21.8163 6.63444 22.803 6.63444 23.8629C6.63444 25.4145 7.30531 26.8095 8.37281 27.7736C8.40672 27.8116 8.44103 27.8486 8.47571 27.8847C8.48507 27.8986 8.49426 27.9124 8.50329 27.9263C8.16464 27.6366 7.82937 27.3337 7.50013 27.0188C4.50012 24.1492 2.00012 20.2778 2.00012 16.2709V5.20013L2.00012 5.19957C2.00037 4.04029 2.757 3.02166 3.87344 2.70927Z" fill="url(#paint7_linear_3_157)" fill-opacity="0.8"/>
<path d="M3.87344 2.70927C6.96437 1.8444 13.0805 0.243378 16.0001 0.243378C16.2104 0.243378 16.4372 0.25188 16.6783 0.267991C19.3472 0.525671 21.4337 2.77479 21.4337 5.51122C21.4337 6.50481 21.1586 7.43413 20.6804 8.22722C19.6583 10.264 17.9854 11.8648 15.4395 13.9608C14.7082 14.5628 13.8697 15.2274 13.0338 15.8899C12.2438 16.516 11.456 17.1404 10.7632 17.7084C9.08033 19.0883 8.05174 19.9317 7.48604 20.99C6.94744 21.8163 6.63444 22.803 6.63444 23.8629C6.63444 25.4145 7.30531 26.8095 8.37281 27.7736C8.40672 27.8116 8.44103 27.8486 8.47571 27.8847C8.48507 27.8986 8.49426 27.9124 8.50329 27.9263C8.16464 27.6366 7.82937 27.3337 7.50013 27.0188C4.50012 24.1492 2.00012 20.2778 2.00012 16.2709V5.20013L2.00012 5.19957C2.00037 4.04029 2.757 3.02166 3.87344 2.70927Z" fill="url(#paint8_radial_3_157)" fill-opacity="0.5"/>
</g>
<defs>
<linearGradient id="paint0_linear_3_157" x1="28.5618" y1="15.4261" x2="9.9652" y2="30.3307" gradientUnits="userSpaceOnUse">
<stop offset="0.716383" stop-color="#143DE0"/>
<stop offset="0.97828" stop-color="#003375"/>
</linearGradient>
<radialGradient id="paint1_radial_3_157" cx="0" cy="0" r="1" gradientUnits="userSpaceOnUse" gradientTransform="translate(18.1396 19.0107) rotate(50.2877) scale(16.5688 49.5336)">
<stop offset="0.227837" stop-color="#003375"/>
<stop offset="0.434167" stop-color="#003375" stop-opacity="0.1"/>
</radialGradient>
<radialGradient id="paint2_radial_3_157" cx="0" cy="0" r="1" gradientTransform="matrix(-26.1398 46.044 -23.0387 -28.3532 30.9151 -8.31997)" gradientUnits="userSpaceOnUse">
<stop offset="0.165327" stop-color="#23C0FE"/>
<stop offset="0.534" stop-color="#1C91FF"/>
</radialGradient>
<radialGradient id="paint3_radial_3_157" cx="0" cy="0" r="1" gradientUnits="userSpaceOnUse" gradientTransform="translate(12.92 10.6551) rotate(43.3819) scale(8.81616 15.6873)">
<stop offset="0.143522" stop-color="#1B44B1"/>
<stop offset="1" stop-color="#045ED1" stop-opacity="0"/>
</radialGradient>
<radialGradient id="paint4_radial_3_157" cx="0" cy="0" r="1" gradientUnits="userSpaceOnUse" gradientTransform="translate(26.1825 17.3135) rotate(28.8937) scale(19.8714 29.1267)">
<stop offset="0.727798" stop-color="#045ED1" stop-opacity="0"/>
<stop offset="0.951239" stop-color="#1B44B1"/>
</radialGradient>
<radialGradient id="paint5_radial_3_157" cx="0" cy="0" r="1" gradientUnits="userSpaceOnUse" gradientTransform="translate(18.9587 9.01214) rotate(-111.097) scale(32.1874 24.6034)">
<stop offset="0.642036" stop-color="#11A7FF" stop-opacity="0"/>
<stop offset="0.796268" stop-color="#6AB3FF"/>
</radialGradient>
<radialGradient id="paint6_radial_3_157" cx="0" cy="0" r="1" gradientTransform="matrix(-23.0446 31.0133 -24.3938 -39.5122 21.4337 -1.25119)" gradientUnits="userSpaceOnUse">
<stop stop-color="#92EEFE"/>
<stop offset="0.212749" stop-color="#35DDFF"/>
<stop offset="0.612478" stop-color="#15BDFB"/>
<stop offset="0.802844" stop-color="#08B1F9"/>
</radialGradient>
<linearGradient id="paint7_linear_3_157" x1="12.4735" y1="11.2366" x2="2.00012" y2="11.2366" gradientUnits="userSpaceOnUse">
<stop offset="0.110619" stop-color="#22CBFD" stop-opacity="0"/>
<stop offset="0.97092" stop-color="#92DEFF"/>
</linearGradient>
<radialGradient id="paint8_radial_3_157" cx="0" cy="0" r="1" gradientTransform="matrix(1.20491 -30.308 16.1309 -0.550262 13.8609 4.74865)" gradientUnits="userSpaceOnUse">
<stop offset="0.657787" stop-color="#92DEFF" stop-opacity="0"/>
<stop offset="0.852025" stop-color="#92DEFF"/>
</radialGradient>
<clipPath id="clip0_3_157">
<rect width="32" height="32" fill="white"/>
</clipPath>
</defs>
</svg>
