<svg width="32" height="32" viewBox="0 0 32 32" fill="none" xmlns="http://www.w3.org/2000/svg">
<g clip-path="url(#clip0_3_258)">
<path d="M4 17.75C4 14.5743 6.57436 12 9.75 12H28V28.5C28 29.8807 26.8807 31 25.5 31H9.02941C6.25174 31 4 28.7483 4 25.9706V17.75Z" fill="url(#paint0_radial_3_258)"/>
<path d="M4 17.75C4 14.5743 6.57436 12 9.75 12H28V28.5C28 29.8807 26.8807 31 25.5 31H9.02941C6.25174 31 4 28.7483 4 25.9706V17.75Z" fill="url(#paint1_radial_3_258)" fill-opacity="0.8"/>
<path d="M4 6.02941C4 3.25174 6.25174 1 9.02941 1H25.2727C26.779 1 28 2.22104 28 3.72727V13.2727C28 14.779 26.779 16 25.2727 16H9.02941C6.25174 16 4 18.2678 4 21.0455V6.02941Z" fill="url(#paint2_linear_3_258)"/>
<path d="M4 6.02941C4 3.25174 6.25174 1 9.02941 1H25.2727C26.779 1 28 2.22104 28 3.72727V13.2727C28 14.779 26.779 16 25.2727 16H9.02941C6.25174 16 4 18.2678 4 21.0455V6.02941Z" fill="url(#paint3_linear_3_258)"/>
<path d="M20.5 13C22.9853 13 25 10.9853 25 8.5C25 6.01472 22.9853 4 20.5 4C18.0147 4 16 6.01472 16 8.5C16 10.9853 18.0147 13 20.5 13Z" fill="url(#paint4_linear_3_258)"/>
<path d="M20.5 11C21.8807 11 23 9.88071 23 8.5C23 7.11929 21.8807 6 20.5 6C19.1193 6 18 7.11929 18 8.5C18 9.88071 19.1193 11 20.5 11Z" fill="url(#paint5_linear_3_258)"/>
<path d="M23.3182 20H17.6818C17.3053 20 17 20.3053 17 20.6818V26.3182C17 26.6947 17.3053 27 17.6818 27H23.3182C23.6947 27 24 26.6947 24 26.3182V20.6818C24 20.3053 23.6947 20 23.3182 20Z" fill="url(#paint6_linear_3_258)"/>
<rect y="14" width="14" height="14" rx="2.75" fill="url(#paint7_radial_3_258)"/>
<rect y="14" width="14" height="14" rx="2.75" fill="url(#paint8_radial_3_258)" fill-opacity="0.6"/>
<path d="M9.30727 18.4951H6.49067V20.4198H9.07905V21.9038H6.49067V25H4.69272V17H9.30727V18.4951Z" fill="white"/>
</g>
<defs>
<radialGradient id="paint0_radial_3_258" cx="0" cy="0" r="1" gradientTransform="matrix(-14.6667 -25.7858 22.2652 -13.1206 22.6667 34.3929)" gradientUnits="userSpaceOnUse">
<stop offset="0.00776619" stop-color="#1A7F7C"/>
<stop offset="0.449818" stop-color="#14717C"/>
<stop offset="0.802885" stop-color="#08567B"/>
</radialGradient>
<radialGradient id="paint1_radial_3_258" cx="0" cy="0" r="1" gradientTransform="matrix(-9.58333 -9.75449 7.42033 -7.54975 11.3333 15.3928)" gradientUnits="userSpaceOnUse">
<stop stop-color="#06517B"/>
<stop offset="0.992234" stop-color="#06517B" stop-opacity="0"/>
</radialGradient>
<linearGradient id="paint2_linear_3_258" x1="4.54023" y1="13.1579" x2="27.7098" y2="0.315501" gradientUnits="userSpaceOnUse">
<stop offset="0.226781" stop-color="#15B4D5"/>
<stop offset="1" stop-color="#43E5CA"/>
</linearGradient>
<linearGradient id="paint3_linear_3_258" x1="10.6119" y1="7.99355" x2="4" y2="7.99355" gradientUnits="userSpaceOnUse">
<stop offset="0.183694" stop-color="#29CBDC" stop-opacity="0"/>
<stop offset="1" stop-color="#36DFF1"/>
</linearGradient>
<linearGradient id="paint4_linear_3_258" x1="17.2857" y1="4.64286" x2="23.0714" y2="13" gradientUnits="userSpaceOnUse">
<stop stop-color="#119FC5"/>
<stop offset="1" stop-color="#22918B"/>
</linearGradient>
<linearGradient id="paint5_linear_3_258" x1="18.7143" y1="6.35714" x2="21.9286" y2="11" gradientUnits="userSpaceOnUse">
<stop stop-color="#06517B"/>
<stop offset="1" stop-color="#1A7F7C"/>
</linearGradient>
<linearGradient id="paint6_linear_3_258" x1="18" y1="20.5" x2="22.5" y2="27" gradientUnits="userSpaceOnUse">
<stop stop-color="#119FC5"/>
<stop offset="1" stop-color="#20AC9D"/>
</linearGradient>
<radialGradient id="paint7_radial_3_258" cx="0" cy="0" r="1" gradientUnits="userSpaceOnUse" gradientTransform="translate(0 14) rotate(45) scale(19.799)">
<stop offset="0.0625" stop-color="#009BBC"/>
<stop offset="0.591346" stop-color="#01657D"/>
<stop offset="0.940625" stop-color="#014354"/>
</radialGradient>
<radialGradient id="paint8_radial_3_258" cx="0" cy="0" r="1" gradientUnits="userSpaceOnUse" gradientTransform="translate(7 22.4) rotate(90) scale(9.8 11.1562)">
<stop offset="0.566964" stop-color="#1E8581" stop-opacity="0"/>
<stop offset="0.973806" stop-color="#1ECBE6"/>
</radialGradient>
<clipPath id="clip0_3_258">
<rect width="32" height="32" fill="white"/>
</clipPath>
</defs>
</svg>
