<svg width="32" height="32" viewBox="0 0 32 32" fill="none" xmlns="http://www.w3.org/2000/svg">
<path d="M8.95495 9.25958C4.1391 9.25969 0.539312 13.2018 0.268311 17.5933C0.436073 18.5396 0.987472 20.4081 1.85097 20.3122C2.93035 20.1923 5.64878 20.3122 7.96744 16.1146C9.66122 13.0483 13.1454 9.25949 8.95495 9.25958Z" fill="url(#paint0_radial_3_146)"/>
<path d="M7.8416 10.8981C6.22281 13.4611 4.04378 17.1336 3.30835 18.2892C2.43415 19.663 0.118992 19.0794 0.310787 17.1103C0.29188 17.2702 0.277358 17.4313 0.267345 17.5936C-0.0493674 22.7165 4.01239 26.9709 9.06674 26.9709C14.6374 26.9709 27.9227 20.0301 26.5782 13.0758C25.1612 8.98789 21.1782 6.05585 16.6643 6.05585C12.1503 6.05585 9.2574 8.65641 7.8416 10.8981Z" fill="url(#paint1_radial_3_146)"/>
<path d="M7.8416 10.8981C6.22281 13.4611 4.04378 17.1336 3.30835 18.2892C2.43415 19.663 0.118992 19.0794 0.310787 17.1103C0.29188 17.2702 0.277358 17.4313 0.267345 17.5936C-0.0493674 22.7165 4.01239 26.9709 9.06674 26.9709C14.6374 26.9709 27.9227 20.0301 26.5782 13.0758C25.1612 8.98789 21.1782 6.05585 16.6643 6.05585C12.1503 6.05585 9.2574 8.65641 7.8416 10.8981Z" fill="url(#paint2_radial_3_146)" fill-opacity="0.4"/>
<path d="M7.8416 10.8981C6.22281 13.4611 4.04378 17.1336 3.30835 18.2892C2.43415 19.663 0.118992 19.0794 0.310787 17.1103C0.29188 17.2702 0.277358 17.4313 0.267345 17.5936C-0.0493674 22.7165 4.01239 26.9709 9.06674 26.9709C14.6374 26.9709 27.9227 20.0301 26.5782 13.0758C25.1612 8.98789 21.1782 6.05585 16.6643 6.05585C12.1503 6.05585 9.2574 8.65641 7.8416 10.8981Z" fill="url(#paint3_radial_3_146)"/>
<path d="M7.8416 10.8981C6.22281 13.4611 4.04378 17.1336 3.30835 18.2892C2.43415 19.663 0.118992 19.0794 0.310787 17.1103C0.29188 17.2702 0.277358 17.4313 0.267345 17.5936C-0.0493674 22.7165 4.01239 26.9709 9.06674 26.9709C14.6374 26.9709 27.9227 20.0301 26.5782 13.0758C25.1612 8.98789 21.1782 6.05585 16.6643 6.05585C12.1503 6.05585 9.2574 8.65641 7.8416 10.8981Z" fill="url(#paint4_radial_3_146)" fill-opacity="0.6"/>
<path d="M7.8416 10.8981C6.22281 13.4611 4.04378 17.1336 3.30835 18.2892C2.43415 19.663 0.118992 19.0794 0.310787 17.1103C0.29188 17.2702 0.277358 17.4313 0.267345 17.5936C-0.0493674 22.7165 4.01239 26.9709 9.06674 26.9709C14.6374 26.9709 27.9227 20.0301 26.5782 13.0758C25.1612 8.98789 21.1782 6.05585 16.6643 6.05585C12.1503 6.05585 9.2574 8.65641 7.8416 10.8981Z" fill="url(#paint5_radial_3_146)" fill-opacity="0.9"/>
<path d="M8.98541 26.9736C8.98541 26.9736 22.2864 26.9997 24.5426 26.9997C28.6369 26.9997 31.75 23.657 31.75 19.7564C31.75 15.8559 28.5745 12.5334 24.5426 12.5334C20.5107 12.5334 18.1889 15.5498 16.445 18.8422C14.4014 22.7004 11.7946 26.9272 8.98541 26.9736Z" fill="url(#paint6_linear_3_146)"/>
<path d="M8.98541 26.9736C8.98541 26.9736 22.2864 26.9997 24.5426 26.9997C28.6369 26.9997 31.75 23.657 31.75 19.7564C31.75 15.8559 28.5745 12.5334 24.5426 12.5334C20.5107 12.5334 18.1889 15.5498 16.445 18.8422C14.4014 22.7004 11.7946 26.9272 8.98541 26.9736Z" fill="url(#paint7_radial_3_146)" fill-opacity="0.4"/>
<path d="M8.98541 26.9736C8.98541 26.9736 22.2864 26.9997 24.5426 26.9997C28.6369 26.9997 31.75 23.657 31.75 19.7564C31.75 15.8559 28.5745 12.5334 24.5426 12.5334C20.5107 12.5334 18.1889 15.5498 16.445 18.8422C14.4014 22.7004 11.7946 26.9272 8.98541 26.9736Z" fill="url(#paint8_radial_3_146)" fill-opacity="0.9"/>
<defs>
<radialGradient id="paint0_radial_3_146" cx="0" cy="0" r="1" gradientTransform="matrix(6.36149 7.62247 -10.6252 12.9697 0.865572 10.4106)" gradientUnits="userSpaceOnUse">
<stop stop-color="#4894FE"/>
<stop offset="0.695072" stop-color="#0934B3"/>
</radialGradient>
<radialGradient id="paint1_radial_3_146" cx="0" cy="0" r="1" gradientTransform="matrix(-27.9656 32.258 -24.6479 -19.8639 27.5187 -1.02104)" gradientUnits="userSpaceOnUse">
<stop offset="0.165327" stop-color="#23C0FE"/>
<stop offset="0.534" stop-color="#1C91FF"/>
</radialGradient>
<radialGradient id="paint2_radial_3_146" cx="0" cy="0" r="1" gradientTransform="matrix(-6.64778 -5.58085 -12.4352 15.5041 7.30813 10.975)" gradientUnits="userSpaceOnUse">
<stop stop-color="white"/>
<stop offset="0.660528" stop-color="#ADC0FF" stop-opacity="0"/>
</radialGradient>
<radialGradient id="paint3_radial_3_146" cx="0" cy="0" r="1" gradientUnits="userSpaceOnUse" gradientTransform="translate(16.7463 21.2339) rotate(-139.764) scale(9.78337 14.8582)">
<stop stop-color="#033ACC"/>
<stop offset="1" stop-color="#368EFF" stop-opacity="0"/>
</radialGradient>
<radialGradient id="paint4_radial_3_146" cx="0" cy="0" r="1" gradientTransform="matrix(8.53542 19.6971 -21.2649 9.21275 6.73363 5.39415)" gradientUnits="userSpaceOnUse">
<stop offset="0.592618" stop-color="#3464E3" stop-opacity="0"/>
<stop offset="1" stop-color="#033ACC"/>
</radialGradient>
<radialGradient id="paint5_radial_3_146" cx="0" cy="0" r="1" gradientUnits="userSpaceOnUse" gradientTransform="translate(27.1745 1.20851) rotate(135) scale(31.5773 49.471)">
<stop stop-color="#4BFDE8"/>
<stop offset="0.543937" stop-color="#4BFDE8" stop-opacity="0"/>
</radialGradient>
<linearGradient id="paint6_linear_3_146" x1="20.3748" y1="26.9851" x2="20.3748" y2="12.705" gradientUnits="userSpaceOnUse">
<stop stop-color="#0086FF"/>
<stop offset="0.49" stop-color="#00BBFF"/>
</linearGradient>
<radialGradient id="paint7_radial_3_146" cx="0" cy="0" r="1" gradientTransform="matrix(13.301 5.27495 -16.8538 22.4653 12.9127 14.2347)" gradientUnits="userSpaceOnUse">
<stop stop-color="white"/>
<stop offset="0.785262" stop-color="white" stop-opacity="0"/>
</radialGradient>
<radialGradient id="paint8_radial_3_146" cx="0" cy="0" r="1" gradientTransform="matrix(-14.8596 12.807 -17.6147 -10.8039 31.305 11.4122)" gradientUnits="userSpaceOnUse">
<stop stop-color="#4BFDE8"/>
<stop offset="0.584724" stop-color="#4BFDE8" stop-opacity="0"/>
</radialGradient>
</defs>
</svg>
