<svg width="32" height="32" viewBox="0 0 32 32" fill="none" xmlns="http://www.w3.org/2000/svg">
<path d="M4 23.4545C4 20.4421 6.44208 18 9.45455 18L28 18V28.33C28 29.8046 26.8046 31 25.33 31H9C6.23858 31 4 28.7614 4 26V23.4545Z" fill="url(#paint0_radial_3_129)"/>
<path d="M17.0004 7.99988H28.0004V18.3299C28.0004 19.8045 26.805 20.9999 25.3304 20.9999H17.0004V7.99988Z" fill="url(#paint1_linear_3_129)"/>
<path d="M4.00531 6C4.00531 3.23858 6.2443 1 9.00573 1C14.5077 1 19.7393 1 25.3294 1C26.804 1 28 2.1954 28 3.67V8.33C28 9.8046 26.8046 11 25.33 11H22.67C21.1954 11 20 12.1954 20 13.67V18.33C20 19.8046 18.8046 21 17.33 21H9.00043C6.23979 21 4.00261 23.2394 4.00531 26V6Z" fill="url(#paint2_linear_3_129)"/>
<path d="M4.00531 6C4.00531 3.23858 6.2443 1 9.00573 1C14.5077 1 19.7393 1 25.3294 1C26.804 1 28 2.1954 28 3.67V8.33C28 9.8046 26.8046 11 25.33 11H22.67C21.1954 11 20 12.1954 20 13.67V18.33C20 19.8046 18.8046 21 17.33 21H9.00043C6.23979 21 4.00261 23.2394 4.00531 26V6Z" fill="url(#paint3_radial_3_129)"/>
<rect y="14" width="14" height="14" rx="2.75" fill="url(#paint4_radial_3_129)"/>
<rect y="14" width="14" height="14" rx="2.75" fill="url(#paint5_radial_3_129)" fill-opacity="0.8"/>
<path d="M10.5966 25H8.77881L5.48329 20.0628C5.39036 19.914 5.31229 19.7857 5.24909 19.6778C5.1859 19.5662 5.13757 19.4733 5.10411 19.3989H5.08181C5.08924 19.5402 5.09482 19.7187 5.09854 19.9344C5.10225 20.1502 5.10411 20.4031 5.10411 20.6932V25H3.40338V17H5.34389L8.51673 21.781C8.58365 21.8889 8.6487 21.9986 8.7119 22.1102C8.77881 22.218 8.84015 22.3259 8.89591 22.4338H8.91821C8.91078 22.3408 8.9052 22.2032 8.90149 22.0209C8.89777 21.835 8.89591 21.6062 8.89591 21.3347V17H10.5966V25Z" fill="white"/>
<defs>
<radialGradient id="paint0_radial_3_129" cx="0" cy="0" r="1" gradientUnits="userSpaceOnUse" gradientTransform="translate(27.3003 31) scale(38.0587 17.375)">
<stop offset="0.158518" stop-color="#A931D8"/>
<stop offset="0.565784" stop-color="#6E1996"/>
</radialGradient>
<linearGradient id="paint1_linear_3_129" x1="32.9384" y1="15.1105" x2="19.1865" y2="8.38876" gradientUnits="userSpaceOnUse">
<stop offset="0.216532" stop-color="#CA59F7"/>
<stop offset="0.888362" stop-color="#691A90"/>
</linearGradient>
<linearGradient id="paint2_linear_3_129" x1="29.0613" y1="7.47028" x2="4.00575" y2="7.47028" gradientUnits="userSpaceOnUse">
<stop offset="0.807408" stop-color="#DE66FF"/>
<stop offset="1" stop-color="#FCB1FF"/>
</linearGradient>
<radialGradient id="paint3_radial_3_129" cx="0" cy="0" r="1" gradientUnits="userSpaceOnUse" gradientTransform="translate(29.7262 -0.501971) rotate(120.45) scale(23.8053 41.0616)">
<stop stop-color="#FFC7A3"/>
<stop offset="0.830508" stop-color="#DE67FD" stop-opacity="0"/>
</radialGradient>
<radialGradient id="paint4_radial_3_129" cx="0" cy="0" r="1" gradientUnits="userSpaceOnUse" gradientTransform="translate(0 14) rotate(45) scale(19.799)">
<stop offset="0.071875" stop-color="#AC13EB"/>
<stop offset="0.878742" stop-color="#580087"/>
</radialGradient>
<radialGradient id="paint5_radial_3_129" cx="0" cy="0" r="1" gradientUnits="userSpaceOnUse" gradientTransform="translate(7 22.4) rotate(90) scale(9.8 11.2875)">
<stop offset="0.584821" stop-color="#841FB0" stop-opacity="0"/>
<stop offset="0.968712" stop-color="#D373FC"/>
</radialGradient>
</defs>
</svg>
