<svg width="32" height="32" viewBox="0 0 32 32" fill="none" xmlns="http://www.w3.org/2000/svg">
<g clip-path="url(#clip0_3_104)">
<path d="M21.7773 3.78573L2.6481 15.9111L1.00299 13.3157V11.0794C1.00299 10.2651 1.41521 9.50627 2.09825 9.06306L13.2181 1.84758C14.9122 0.748268 17.0945 0.7481 18.7888 1.84716L21.7773 3.78573Z" fill="url(#paint0_linear_3_104)"/>
<path d="M18.6172 1.74112C18.6747 1.77532 18.7318 1.81075 18.7882 1.84739L27.4666 7.47674L5.94893 21.116L2.64703 15.9069L18.4389 5.87761C19.9347 4.92763 20.0002 2.79058 18.6172 1.74112Z" fill="url(#paint1_linear_3_104)"/>
<path d="M18.6172 1.74112C18.6747 1.77532 18.7318 1.81075 18.7882 1.84739L27.4666 7.47674L5.94893 21.116L2.64703 15.9069L18.4389 5.87761C19.9347 4.92763 20.0002 2.79058 18.6172 1.74112Z" fill="url(#paint2_linear_3_104)" fill-opacity="0.2"/>
<path d="M14.534 23.7204L5.94904 21.1161L24.2017 9.54602C25.7389 8.57161 25.7349 6.32742 24.1942 5.35851L24.112 5.30682L24.3487 5.4541L29.9039 9.05756C30.5871 9.50074 30.9994 10.2597 30.9994 11.0741V13.2386L14.534 23.7204Z" fill="url(#paint3_linear_3_104)"/>
<path d="M14.534 23.7204L5.94904 21.1161L24.2017 9.54602C25.7389 8.57161 25.7349 6.32742 24.1942 5.35851L24.112 5.30682L24.3487 5.4541L29.9039 9.05756C30.5871 9.50074 30.9994 10.2597 30.9994 11.0741V13.2386L14.534 23.7204Z" fill="url(#paint4_linear_3_104)" fill-opacity="0.2"/>
<path d="M18.7888 1.84716C17.0945 0.7481 14.9122 0.748268 13.2181 1.84758L2.09825 9.06306C1.41521 9.50627 1.00299 10.2651 1.00299 11.0794V11.1888C1.0298 12.0061 1.45994 12.7595 2.15466 13.1975L15.9811 21.9143L29.8424 13.2107C30.5622 12.7587 30.9992 11.9684 30.9992 11.1184V13.2387L30.9995 11.0741C30.9995 10.2597 30.5871 9.50076 29.9039 9.05758L18.7888 1.84716Z" fill="url(#paint5_radial_3_104)"/>
<path d="M13.5433 31.0012H25.9685C28.7462 31.0012 30.9979 28.7495 30.9979 25.9718L30.9979 11.1213C30.9969 11.9701 30.5601 12.7591 29.8411 13.2105L11.6252 24.6485C10.6426 25.2654 10.0462 26.3443 10.0463 27.5045C10.0465 29.4357 11.6121 31.0012 13.5433 31.0012Z" fill="url(#paint6_linear_3_104)"/>
<path d="M13.5433 31.0012H25.9685C28.7462 31.0012 30.9979 28.7495 30.9979 25.9718L30.9979 11.1213C30.9969 11.9701 30.5601 12.7591 29.8411 13.2105L11.6252 24.6485C10.6426 25.2654 10.0462 26.3443 10.0463 27.5045C10.0465 29.4357 11.6121 31.0012 13.5433 31.0012Z" fill="url(#paint7_radial_3_104)" fill-opacity="0.4"/>
<path d="M13.5433 31.0012H25.9685C28.7462 31.0012 30.9979 28.7495 30.9979 25.9718L30.9979 11.1213C30.9969 11.9701 30.5601 12.7591 29.8411 13.2105L11.6252 24.6485C10.6426 25.2654 10.0462 26.3443 10.0463 27.5045C10.0465 29.4357 11.6121 31.0012 13.5433 31.0012Z" fill="url(#paint8_radial_3_104)" fill-opacity="0.5"/>
<path d="M18.5224 31.0002H6.02981C3.25214 31.0002 1.0004 28.7485 1.0004 25.9708V11.1075C1.0004 11.9559 1.43572 12.7449 2.1534 13.1974L20.3513 24.6701C21.3475 25.2982 21.9518 26.3936 21.9517 27.5713C21.9515 29.4651 20.4162 31.0002 18.5224 31.0002Z" fill="url(#paint9_radial_3_104)"/>
<path d="M18.5224 31.0002H6.02981C3.25214 31.0002 1.0004 28.7485 1.0004 25.9708V11.1075C1.0004 11.9559 1.43572 12.7449 2.1534 13.1974L20.3513 24.6701C21.3475 25.2982 21.9518 26.3936 21.9517 27.5713C21.9515 29.4651 20.4162 31.0002 18.5224 31.0002Z" fill="url(#paint10_linear_3_104)"/>
</g>
<rect y="14" width="14" height="14" rx="2.75" fill="url(#paint11_radial_3_104)"/>
<rect y="14" width="14" height="14" rx="2.75" fill="url(#paint12_radial_3_104)" fill-opacity="0.5"/>
<path d="M6.96433 25C5.81394 25 4.86951 24.6401 4.13103 23.9203C3.39255 23.2006 3.02332 22.2613 3.02332 21.1025C3.02332 19.879 3.39812 18.8893 4.14773 18.1336C4.89734 17.3778 5.87888 17 7.09236 17C8.23904 17 9.17234 17.3616 9.89226 18.085C10.6159 18.8083 10.9777 19.762 10.9777 20.946C10.9777 22.1624 10.6029 23.143 9.8533 23.888C9.1074 24.6293 8.14441 25 6.96433 25ZM6.99773 23.4723C7.62488 23.4723 8.12957 23.2582 8.51179 22.8299C8.89402 22.4017 9.08513 21.8061 9.08513 21.0432C9.08513 20.2478 8.89958 19.6288 8.52849 19.1862C8.1574 18.7436 7.66199 18.5222 7.04226 18.5222C6.40398 18.5222 5.89001 18.7508 5.50037 19.2078C5.11072 19.6612 4.91589 20.2622 4.91589 21.0108C4.91589 21.7701 5.11072 22.3711 5.50037 22.8137C5.89001 23.2528 6.38914 23.4723 6.99773 23.4723Z" fill="white"/>
<defs>
<linearGradient id="paint0_linear_3_104" x1="4.32567" y1="14.6366" x2="21.7773" y2="3.8123" gradientUnits="userSpaceOnUse">
<stop stop-color="#20A7FA"/>
<stop offset="0.4" stop-color="#3BD5FF"/>
<stop offset="1" stop-color="#C4B0FF"/>
</linearGradient>
<linearGradient id="paint1_linear_3_104" x1="10.3318" y1="18.3279" x2="20.0471" y2="2.77146" gradientUnits="userSpaceOnUse">
<stop stop-color="#165AD9"/>
<stop offset="0.5008" stop-color="#1880E5"/>
<stop offset="1" stop-color="#8587FF"/>
</linearGradient>
<linearGradient id="paint2_linear_3_104" x1="17.4175" y1="18.5395" x2="6.63127" y2="9.75069" gradientUnits="userSpaceOnUse">
<stop offset="0.236946" stop-color="#448AFF" stop-opacity="0"/>
<stop offset="0.792113" stop-color="#0032B1"/>
</linearGradient>
<linearGradient id="paint3_linear_3_104" x1="16.0449" y1="21.9239" x2="33.0911" y2="11.0143" gradientUnits="userSpaceOnUse">
<stop stop-color="#1A43A6"/>
<stop offset="0.492267" stop-color="#2052CB"/>
<stop offset="1" stop-color="#5F20CB"/>
</linearGradient>
<linearGradient id="paint4_linear_3_104" x1="20.8569" y1="21.2717" x2="10.4987" y2="12.3084" gradientUnits="userSpaceOnUse">
<stop stop-color="#0045B9" stop-opacity="0"/>
<stop offset="0.669859" stop-color="#0D1F69"/>
</linearGradient>
<radialGradient id="paint5_radial_3_104" cx="0" cy="0" r="1" gradientUnits="userSpaceOnUse" gradientTransform="translate(16.0023 1.68152) rotate(-90) scale(22.501 24.3539)">
<stop offset="0.568182" stop-color="#275FF0" stop-opacity="0"/>
<stop offset="0.992424" stop-color="#002177"/>
</radialGradient>
<linearGradient id="paint6_linear_3_104" x1="30.9979" y1="20.9514" x2="15.8768" y2="20.9514" gradientUnits="userSpaceOnUse">
<stop stop-color="#4DC4FF"/>
<stop offset="0.196145" stop-color="#0FAFFF"/>
</linearGradient>
<radialGradient id="paint7_radial_3_104" cx="0" cy="0" r="1" gradientUnits="userSpaceOnUse" gradientTransform="translate(19.4109 27.5916) rotate(-45) scale(9.64279)">
<stop offset="0.259477" stop-color="#0060D1"/>
<stop offset="0.908166" stop-color="#0383F1" stop-opacity="0"/>
</radialGradient>
<radialGradient id="paint8_radial_3_104" cx="0" cy="0" r="1" gradientTransform="matrix(19.8549 -26.0234 18.2973 24.8145 4.86049 34.7247)" gradientUnits="userSpaceOnUse">
<stop offset="0.732317" stop-color="#F4A7F7" stop-opacity="0"/>
<stop offset="1" stop-color="#F4A7F7"/>
</radialGradient>
<radialGradient id="paint9_radial_3_104" cx="0" cy="0" r="1" gradientUnits="userSpaceOnUse" gradientTransform="translate(11.4761 18.9422) rotate(123.339) scale(17.2705 44.8191)">
<stop stop-color="#49DEFF"/>
<stop offset="0.724349" stop-color="#29C3FF"/>
</radialGradient>
<linearGradient id="paint10_linear_3_104" x1="-1.11755" y1="27.5587" x2="13.4413" y2="27.5482" gradientUnits="userSpaceOnUse">
<stop offset="0.205882" stop-color="#6CE0FF"/>
<stop offset="0.535" stop-color="#50D5FF" stop-opacity="0"/>
</linearGradient>
<radialGradient id="paint11_radial_3_104" cx="0" cy="0" r="1" gradientUnits="userSpaceOnUse" gradientTransform="translate(-0.0499545 14.5385) rotate(46.9242) scale(18.4291)">
<stop offset="0.038877" stop-color="#0091FF"/>
<stop offset="0.919119" stop-color="#183DAD"/>
</radialGradient>
<radialGradient id="paint12_radial_3_104" cx="0" cy="0" r="1" gradientUnits="userSpaceOnUse" gradientTransform="translate(7 22.5259) rotate(90) scale(9.8 11.304)">
<stop offset="0.557796" stop-color="#0FA5F7" stop-opacity="0"/>
<stop offset="1" stop-color="#74C6FF"/>
</radialGradient>
<clipPath id="clip0_3_104">
<rect width="30" height="30" fill="white" transform="translate(1 1)"/>
</clipPath>
</defs>
</svg>
