<svg width="32" height="32" viewBox="0 0 32 32" fill="none" xmlns="http://www.w3.org/2000/svg">
<g clip-path="url(#clip0_3_239)">
<path d="M14.9996 13H25.2496C27.8729 13 29.9996 15.1266 29.9996 17.75V25.6087C29.9996 28.5862 27.5858 31 24.6083 31H24.3909C21.4133 31 18.9996 28.5862 18.9996 25.6087V17C18.9996 14.7909 17.2087 13 14.9996 13Z" fill="url(#paint0_radial_3_239)"/>
<path d="M3 15.7174C3 13.112 5.11205 11 7.71739 11H14.2826C16.888 11 19 13.112 19 15.7174V25.4998C19 28.5374 21.4624 30.9998 24.5 30.9998H11.087C6.62065 30.9998 3 27.3792 3 22.9129V15.7174Z" fill="url(#paint1_radial_3_239)"/>
<path d="M3 15.7174C3 13.112 5.11205 11 7.71739 11H14.2826C16.888 11 19 13.112 19 15.7174V25.4998C19 28.5374 21.4624 30.9998 24.5 30.9998H11.087C6.62065 30.9998 3 27.3792 3 22.9129V15.7174Z" fill="url(#paint2_linear_3_239)" fill-opacity="0.7"/>
<path d="M3 15.7174C3 13.112 5.11205 11 7.71739 11H14.2826C16.888 11 19 13.112 19 15.7174V25.4998C19 28.5374 21.4624 30.9998 24.5 30.9998H11.087C6.62065 30.9998 3 27.3792 3 22.9129V15.7174Z" fill="url(#paint3_radial_3_239)" fill-opacity="0.7"/>
<path d="M23.5 12C25.9853 12 28 9.98528 28 7.5C28 5.01472 25.9853 3 23.5 3C21.0147 3 19 5.01472 19 7.5C19 9.98528 21.0147 12 23.5 12Z" fill="url(#paint4_radial_3_239)"/>
<path d="M23.5 12C25.9853 12 28 9.98528 28 7.5C28 5.01472 25.9853 3 23.5 3C21.0147 3 19 5.01472 19 7.5C19 9.98528 21.0147 12 23.5 12Z" fill="url(#paint5_radial_3_239)" fill-opacity="0.46"/>
<path d="M23.5 12C25.9853 12 28 9.98528 28 7.5C28 5.01472 25.9853 3 23.5 3C21.0147 3 19 5.01472 19 7.5C19 9.98528 21.0147 12 23.5 12Z" fill="url(#paint6_radial_3_239)" fill-opacity="0.4"/>
<path d="M12 10C14.7614 10 17 7.76142 17 5C17 2.23858 14.7614 0 12 0C9.23858 0 7 2.23858 7 5C7 7.76142 9.23858 10 12 10Z" fill="url(#paint7_radial_3_239)"/>
<path d="M12 10C14.7614 10 17 7.76142 17 5C17 2.23858 14.7614 0 12 0C9.23858 0 7 2.23858 7 5C7 7.76142 9.23858 10 12 10Z" fill="url(#paint8_radial_3_239)" fill-opacity="0.6"/>
<path d="M12 10C14.7614 10 17 7.76142 17 5C17 2.23858 14.7614 0 12 0C9.23858 0 7 2.23858 7 5C7 7.76142 9.23858 10 12 10Z" fill="url(#paint9_radial_3_239)" fill-opacity="0.5"/>
<rect y="14" width="14" height="14" rx="2.75" fill="url(#paint10_radial_3_239)"/>
<rect y="14" width="14" height="14" rx="2.75" fill="url(#paint11_radial_3_239)" fill-opacity="0.7"/>
<path d="M10.0446 18.4672H7.90334V25H6.09666V18.4672H3.95541V17H10.0446V18.4672Z" fill="white"/>
</g>
<defs>
<radialGradient id="paint0_radial_3_239" cx="0" cy="0" r="1" gradientUnits="userSpaceOnUse" gradientTransform="translate(28.9398 14.8261) scale(10.9955 27.1408)">
<stop stop-color="#A98AFF"/>
<stop offset="0.14" stop-color="#8C75FF"/>
<stop offset="0.565" stop-color="#5F50E2"/>
<stop offset="0.9" stop-color="#3C2CB8"/>
</radialGradient>
<radialGradient id="paint1_radial_3_239" cx="0" cy="0" r="1" gradientTransform="matrix(10.0781 25.3332 -25.5312 9.99993 3.67188 9.66664)" gradientUnits="userSpaceOnUse">
<stop stop-color="#85C2FF"/>
<stop offset="0.69" stop-color="#7588FF"/>
<stop offset="1" stop-color="#6459FE"/>
</radialGradient>
<linearGradient id="paint2_linear_3_239" x1="13.4141" y1="11" x2="13.4141" y2="30.9998" gradientUnits="userSpaceOnUse">
<stop offset="0.801159" stop-color="#6864F6" stop-opacity="0"/>
<stop offset="1" stop-color="#5149DE"/>
</linearGradient>
<radialGradient id="paint3_radial_3_239" cx="0" cy="0" r="1" gradientTransform="matrix(-6.29269 14.7064 -12.3499 -3.60544 19.125 10.3333)" gradientUnits="userSpaceOnUse">
<stop stop-color="#BD96FF"/>
<stop offset="0.686685" stop-color="#BD96FF" stop-opacity="0"/>
</radialGradient>
<radialGradient id="paint4_radial_3_239" cx="0" cy="0" r="1" gradientUnits="userSpaceOnUse" gradientTransform="translate(23.5 6.21429) rotate(-90) scale(9 11.3595)">
<stop offset="0.268201" stop-color="#6868F7"/>
<stop offset="1" stop-color="#3923B1"/>
</radialGradient>
<radialGradient id="paint5_radial_3_239" cx="0" cy="0" r="1" gradientUnits="userSpaceOnUse" gradientTransform="translate(19.7809 5.28963) rotate(40.0516) scale(6.43166 9.30263)">
<stop offset="0.270711" stop-color="#A1D3FF"/>
<stop offset="0.813393" stop-color="#A1D3FF" stop-opacity="0"/>
</radialGradient>
<radialGradient id="paint6_radial_3_239" cx="0" cy="0" r="1" gradientUnits="userSpaceOnUse" gradientTransform="translate(27.084 5.13172) rotate(-41.6581) scale(7.66147 18.7942)">
<stop stop-color="#E3ACFD"/>
<stop offset="0.816041" stop-color="#9FA2FF" stop-opacity="0"/>
</radialGradient>
<radialGradient id="paint7_radial_3_239" cx="0" cy="0" r="1" gradientUnits="userSpaceOnUse" gradientTransform="translate(12 3.57143) rotate(-90) scale(10 12.6216)">
<stop offset="0.268201" stop-color="#8282FF"/>
<stop offset="1" stop-color="#3923B1"/>
</radialGradient>
<radialGradient id="paint8_radial_3_239" cx="0" cy="0" r="1" gradientUnits="userSpaceOnUse" gradientTransform="translate(7.86766 2.54403) rotate(40.0516) scale(7.14629 10.3363)">
<stop offset="0.270711" stop-color="#A1D3FF"/>
<stop offset="0.813393" stop-color="#A1D3FF" stop-opacity="0"/>
</radialGradient>
<radialGradient id="paint9_radial_3_239" cx="0" cy="0" r="1" gradientUnits="userSpaceOnUse" gradientTransform="translate(15.9822 2.36858) rotate(-41.6581) scale(8.51275 20.8824)">
<stop stop-color="#E3ACFD"/>
<stop offset="0.816041" stop-color="#9FA2FF" stop-opacity="0"/>
</radialGradient>
<radialGradient id="paint10_radial_3_239" cx="0" cy="0" r="1" gradientUnits="userSpaceOnUse" gradientTransform="translate(0 14) rotate(45) scale(19.799)">
<stop offset="0.046875" stop-color="#688EFF"/>
<stop offset="0.946875" stop-color="#230F94"/>
</radialGradient>
<radialGradient id="paint11_radial_3_239" cx="0" cy="0" r="1" gradientUnits="userSpaceOnUse" gradientTransform="translate(7 22.4) rotate(90) scale(9.8 11.4364)">
<stop offset="0.570647" stop-color="#6965F6" stop-opacity="0"/>
<stop offset="1" stop-color="#8F8FFF"/>
</radialGradient>
<clipPath id="clip0_3_239">
<rect width="32" height="32" fill="white"/>
</clipPath>
</defs>
</svg>
