<svg width="419" height="663" viewBox="0 0 419 663" fill="none" xmlns="http://www.w3.org/2000/svg">
<g filter="url(#filter0_dd_84_29837)">
<path d="M23.9355 29.9193C23.9355 20.0049 31.9728 11.9677 41.8872 11.9677H376.984C386.898 11.9677 394.936 20.005 394.936 29.9194V609.016C394.936 618.931 386.898 626.968 376.984 626.968H41.8871C31.9727 626.968 23.9355 618.931 23.9355 609.016V29.9193Z" fill="white" shape-rendering="crispEdges"/>
<rect x="63.9355" y="94.9677" width="291" height="167.5" rx="13" stroke="#3E45C9" stroke-width="2" stroke-dasharray="8 6"/>
<path d="M133.561 184.218L137.717 173.015H139.889L144.006 184.218H141.959L140.998 181.601H136.521L135.607 184.218H133.561ZM137.029 179.976H140.49L138.982 175.577C138.941 175.457 138.904 175.353 138.873 175.265C138.847 175.171 138.818 175.054 138.787 174.913H138.732C138.696 175.038 138.662 175.15 138.631 175.249C138.605 175.348 138.571 175.457 138.529 175.577L137.029 179.976ZM152.076 182.694C151.717 183.267 151.256 183.697 150.693 183.983C150.131 184.265 149.506 184.405 148.818 184.405C147.527 184.405 146.519 184.035 145.795 183.296C145.076 182.551 144.717 181.575 144.717 180.366C144.717 179.022 145.102 177.965 145.873 177.194C146.644 176.418 147.644 176.03 148.873 176.03C149.576 176.03 150.206 176.181 150.764 176.483C151.326 176.78 151.748 177.22 152.029 177.804L150.561 178.53C150.321 178.171 150.061 177.916 149.779 177.765C149.503 177.614 149.178 177.538 148.803 177.538C148.173 177.538 147.652 177.775 147.24 178.249C146.829 178.718 146.623 179.379 146.623 180.233C146.623 181.072 146.826 181.718 147.232 182.171C147.639 182.624 148.18 182.851 148.857 182.851C149.212 182.851 149.537 182.778 149.834 182.632C150.131 182.481 150.396 182.231 150.631 181.882L152.076 182.694ZM160.545 182.694C160.186 183.267 159.725 183.697 159.162 183.983C158.6 184.265 157.975 184.405 157.287 184.405C155.995 184.405 154.988 184.035 154.264 183.296C153.545 182.551 153.186 181.575 153.186 180.366C153.186 179.022 153.571 177.965 154.342 177.194C155.113 176.418 156.113 176.03 157.342 176.03C158.045 176.03 158.675 176.181 159.232 176.483C159.795 176.78 160.217 177.22 160.498 177.804L159.029 178.53C158.79 178.171 158.529 177.916 158.248 177.765C157.972 177.614 157.646 177.538 157.271 177.538C156.641 177.538 156.12 177.775 155.709 178.249C155.298 178.718 155.092 179.379 155.092 180.233C155.092 181.072 155.295 181.718 155.701 182.171C156.107 182.624 156.649 182.851 157.326 182.851C157.68 182.851 158.006 182.778 158.303 182.632C158.6 182.481 158.865 182.231 159.1 181.882L160.545 182.694ZM165.803 184.405C164.532 184.405 163.521 184.033 162.771 183.288C162.027 182.543 161.654 181.541 161.654 180.28C161.66 179.004 162.055 177.978 162.842 177.202C163.628 176.421 164.654 176.03 165.92 176.03C167.186 176.03 168.183 176.413 168.912 177.179C169.646 177.944 170.014 178.934 170.014 180.147C170.014 181.387 169.626 182.408 168.85 183.21C168.079 184.007 167.063 184.405 165.803 184.405ZM165.873 182.89C166.581 182.89 167.128 182.647 167.514 182.163C167.904 181.673 168.1 181.017 168.1 180.194C168.1 179.392 167.904 178.752 167.514 178.272C167.128 177.788 166.579 177.546 165.865 177.546C165.167 177.546 164.607 177.796 164.186 178.296C163.769 178.796 163.561 179.444 163.561 180.241C163.561 181.064 163.766 181.713 164.178 182.186C164.589 182.655 165.154 182.89 165.873 182.89ZM178.717 184.218H176.842V183.132H176.811C176.555 183.522 176.206 183.832 175.764 184.061C175.321 184.291 174.857 184.405 174.373 184.405C173.441 184.405 172.735 184.129 172.256 183.577C171.777 183.02 171.537 182.207 171.537 181.14V176.218H173.396V180.89C173.396 181.556 173.524 182.056 173.779 182.39C174.035 182.723 174.433 182.89 174.975 182.89C175.521 182.89 175.969 182.692 176.318 182.296C176.667 181.895 176.842 181.39 176.842 180.78V176.218H178.717V184.218ZM188.084 184.218H186.217V179.546C186.217 178.9 186.087 178.405 185.826 178.061C185.566 177.718 185.175 177.546 184.654 177.546C184.102 177.546 183.649 177.746 183.295 178.147C182.946 178.543 182.771 179.046 182.771 179.655V184.218H180.904V176.218H182.771V177.304H182.803C183.084 176.897 183.449 176.585 183.896 176.366C184.35 176.142 184.837 176.03 185.357 176.03C186.248 176.03 186.925 176.314 187.389 176.882C187.852 177.444 188.084 178.249 188.084 179.296V184.218ZM194.873 183.843C194.66 184.015 194.386 184.15 194.053 184.249C193.725 184.353 193.368 184.405 192.982 184.405C192.201 184.405 191.61 184.205 191.209 183.804C190.813 183.403 190.615 182.814 190.615 182.038V177.671H189.279V176.218H190.615V174.257L192.482 173.921V176.218H194.521V177.671H192.482V181.78C192.482 182.171 192.561 182.46 192.717 182.647C192.873 182.83 193.092 182.921 193.373 182.921C193.519 182.921 193.662 182.895 193.803 182.843C193.949 182.791 194.113 182.705 194.295 182.585L194.873 183.843ZM200.967 174.718C200.628 174.718 200.352 174.608 200.139 174.39C199.925 174.171 199.818 173.908 199.818 173.601C199.818 173.283 199.925 173.02 200.139 172.811C200.352 172.598 200.628 172.491 200.967 172.491C201.311 172.491 201.589 172.598 201.803 172.811C202.021 173.02 202.131 173.283 202.131 173.601C202.131 173.918 202.021 174.184 201.803 174.397C201.589 174.611 201.311 174.718 200.967 174.718ZM201.896 184.218H200.021V176.218H201.896V184.218ZM211.271 184.218H209.404V179.546C209.404 178.9 209.274 178.405 209.014 178.061C208.753 177.718 208.363 177.546 207.842 177.546C207.29 177.546 206.837 177.746 206.482 178.147C206.133 178.543 205.959 179.046 205.959 179.655V184.218H204.092V176.218H205.959V177.304H205.99C206.271 176.897 206.636 176.585 207.084 176.366C207.537 176.142 208.024 176.03 208.545 176.03C209.436 176.03 210.113 176.314 210.576 176.882C211.04 177.444 211.271 178.249 211.271 179.296V184.218ZM217.67 173.976C217.535 173.887 217.394 173.819 217.248 173.772C217.107 173.72 216.951 173.694 216.779 173.694C216.446 173.694 216.188 173.798 216.006 174.007C215.829 174.215 215.74 174.525 215.74 174.936V176.218H217.592V177.671H215.74V184.218H213.881V177.671H212.521V176.218H213.881V174.929C213.881 174.085 214.126 173.418 214.615 172.929C215.11 172.439 215.805 172.194 216.701 172.194C217.003 172.194 217.298 172.231 217.584 172.304C217.87 172.371 218.154 172.478 218.436 172.624L217.67 173.976ZM222.475 184.405C221.204 184.405 220.193 184.033 219.443 183.288C218.699 182.543 218.326 181.541 218.326 180.28C218.331 179.004 218.727 177.978 219.514 177.202C220.3 176.421 221.326 176.03 222.592 176.03C223.857 176.03 224.855 176.413 225.584 177.179C226.318 177.944 226.686 178.934 226.686 180.147C226.686 181.387 226.298 182.408 225.521 183.21C224.751 184.007 223.735 184.405 222.475 184.405ZM222.545 182.89C223.253 182.89 223.8 182.647 224.186 182.163C224.576 181.673 224.771 181.017 224.771 180.194C224.771 179.392 224.576 178.752 224.186 178.272C223.8 177.788 223.251 177.546 222.537 177.546C221.839 177.546 221.279 177.796 220.857 178.296C220.441 178.796 220.232 179.444 220.232 180.241C220.232 181.064 220.438 181.713 220.85 182.186C221.261 182.655 221.826 182.89 222.545 182.89ZM232.959 177.897C232.813 177.84 232.662 177.796 232.506 177.765C232.35 177.728 232.188 177.71 232.021 177.71C231.49 177.71 231.058 177.947 230.725 178.421C230.391 178.89 230.225 179.504 230.225 180.265V184.218H228.357V176.218H230.225V177.663H230.256C230.443 177.153 230.719 176.762 231.084 176.491C231.449 176.215 231.87 176.077 232.35 176.077C232.553 176.077 232.74 176.093 232.912 176.124C233.089 176.155 233.274 176.215 233.467 176.304L232.959 177.897ZM246.6 184.218H244.732V179.616C244.732 178.903 244.61 178.379 244.365 178.046C244.12 177.713 243.73 177.546 243.193 177.546C242.719 177.546 242.321 177.757 241.998 178.179C241.68 178.595 241.521 179.103 241.521 179.702V184.218H239.654V179.546C239.654 178.879 239.524 178.379 239.264 178.046C239.008 177.713 238.623 177.546 238.107 177.546C237.618 177.546 237.217 177.744 236.904 178.14C236.597 178.535 236.443 179.061 236.443 179.718V184.218H234.576V176.218H236.443V177.296H236.475C236.745 176.9 237.1 176.59 237.537 176.366C237.975 176.142 238.451 176.03 238.967 176.03C239.524 176.03 240.001 176.16 240.396 176.421C240.792 176.676 241.074 177.012 241.24 177.429C241.568 176.96 241.962 176.611 242.42 176.382C242.878 176.147 243.396 176.03 243.975 176.03C244.803 176.03 245.446 176.304 245.904 176.851C246.368 177.392 246.6 178.2 246.6 179.272V184.218ZM254.795 184.218H252.99V183.233H252.959C252.673 183.614 252.326 183.905 251.92 184.108C251.514 184.306 251.063 184.405 250.568 184.405C249.829 184.405 249.222 184.194 248.748 183.772C248.279 183.351 248.045 182.796 248.045 182.108C248.045 181.379 248.279 180.791 248.748 180.343C249.222 179.895 249.899 179.621 250.779 179.522L252.998 179.272V178.897C252.998 178.413 252.86 178.051 252.584 177.811C252.313 177.567 251.954 177.444 251.506 177.444C251.074 177.444 250.706 177.543 250.404 177.741C250.102 177.934 249.85 178.215 249.646 178.585L248.271 177.866C248.542 177.33 248.969 176.89 249.553 176.546C250.141 176.202 250.839 176.03 251.646 176.03C252.667 176.03 253.446 176.296 253.982 176.827C254.524 177.358 254.795 178.134 254.795 179.155V184.218ZM252.998 180.968V180.538L251.084 180.741C250.652 180.788 250.334 180.91 250.131 181.108C249.933 181.306 249.834 181.569 249.834 181.897C249.834 182.231 249.949 182.499 250.178 182.702C250.407 182.905 250.701 183.007 251.061 183.007C251.639 183.007 252.105 182.814 252.459 182.429C252.818 182.043 252.998 181.556 252.998 180.968ZM261.576 183.843C261.363 184.015 261.089 184.15 260.756 184.249C260.428 184.353 260.071 184.405 259.686 184.405C258.904 184.405 258.313 184.205 257.912 183.804C257.516 183.403 257.318 182.814 257.318 182.038V177.671H255.982V176.218H257.318V174.257L259.186 173.921V176.218H261.225V177.671H259.186V181.78C259.186 182.171 259.264 182.46 259.42 182.647C259.576 182.83 259.795 182.921 260.076 182.921C260.222 182.921 260.365 182.895 260.506 182.843C260.652 182.791 260.816 182.705 260.998 182.585L261.576 183.843ZM263.92 174.718C263.581 174.718 263.305 174.608 263.092 174.39C262.878 174.171 262.771 173.908 262.771 173.601C262.771 173.283 262.878 173.02 263.092 172.811C263.305 172.598 263.581 172.491 263.92 172.491C264.264 172.491 264.542 172.598 264.756 172.811C264.975 173.02 265.084 173.283 265.084 173.601C265.084 173.918 264.975 174.184 264.756 174.397C264.542 174.611 264.264 174.718 263.92 174.718ZM264.85 184.218H262.975V176.218H264.85V184.218ZM270.678 184.405C269.407 184.405 268.396 184.033 267.646 183.288C266.902 182.543 266.529 181.541 266.529 180.28C266.535 179.004 266.93 177.978 267.717 177.202C268.503 176.421 269.529 176.03 270.795 176.03C272.061 176.03 273.058 176.413 273.787 177.179C274.521 177.944 274.889 178.934 274.889 180.147C274.889 181.387 274.501 182.408 273.725 183.21C272.954 184.007 271.938 184.405 270.678 184.405ZM270.748 182.89C271.456 182.89 272.003 182.647 272.389 182.163C272.779 181.673 272.975 181.017 272.975 180.194C272.975 179.392 272.779 178.752 272.389 178.272C272.003 177.788 271.454 177.546 270.74 177.546C270.042 177.546 269.482 177.796 269.061 178.296C268.644 178.796 268.436 179.444 268.436 180.241C268.436 181.064 268.641 181.713 269.053 182.186C269.464 182.655 270.029 182.89 270.748 182.89ZM283.74 184.218H281.873V179.546C281.873 178.9 281.743 178.405 281.482 178.061C281.222 177.718 280.831 177.546 280.311 177.546C279.758 177.546 279.305 177.746 278.951 178.147C278.602 178.543 278.428 179.046 278.428 179.655V184.218H276.561V176.218H278.428V177.304H278.459C278.74 176.897 279.105 176.585 279.553 176.366C280.006 176.142 280.493 176.03 281.014 176.03C281.904 176.03 282.581 176.314 283.045 176.882C283.508 177.444 283.74 178.249 283.74 179.296V184.218Z" fill="#424242"/>
<rect x="63.9355" y="288.468" width="291" height="167.5" rx="13" fill="#F3F3FF"/>
<rect x="63.9355" y="288.468" width="291" height="167.5" rx="13" stroke="#3E45C9" stroke-width="2" stroke-dasharray="8 6"/>
<rect x="86.9355" y="311.468" width="245" height="43" rx="8" fill="#3E45C9" fill-opacity="0.1"/>
<path d="M198.151 333.564C198.151 334.749 197.819 335.725 197.153 336.49C196.493 337.251 195.517 337.632 194.228 337.632C192.993 337.632 192.054 337.26 191.411 336.518C190.773 335.775 190.454 334.802 190.454 333.599V327.665H192.129V333.523C192.129 334.376 192.332 335.025 192.737 335.472C193.143 335.914 193.674 336.135 194.33 336.135C194.968 336.135 195.485 335.923 195.882 335.499C196.278 335.071 196.477 334.442 196.477 333.612V327.665H198.151V333.564ZM201.788 336.743H201.761V340.687H200.127V330.468H201.761V331.459H201.788C202.071 331.076 202.41 330.789 202.807 330.598C203.203 330.402 203.65 330.304 204.146 330.304C205.076 330.304 205.799 330.611 206.313 331.227C206.833 331.842 207.093 332.699 207.093 333.797C207.093 334.945 206.801 335.873 206.218 336.579C205.639 337.281 204.864 337.632 203.894 337.632C203.447 337.632 203.046 337.557 202.69 337.406C202.34 337.256 202.039 337.035 201.788 336.743ZM201.747 333.667V334.515C201.747 335.025 201.916 335.451 202.253 335.793C202.59 336.135 203.016 336.306 203.531 336.306C204.115 336.306 204.573 336.085 204.905 335.643C205.243 335.196 205.411 334.594 205.411 333.838C205.411 333.104 205.258 332.553 204.953 332.184C204.648 331.814 204.222 331.63 203.675 331.63C203.11 331.63 202.647 331.821 202.287 332.204C201.927 332.582 201.747 333.07 201.747 333.667ZM208.118 336.347L209.109 335.465C209.36 335.807 209.629 336.048 209.916 336.189C210.208 336.331 210.513 336.401 210.832 336.401C211.197 336.401 211.477 336.326 211.673 336.176C211.873 336.021 211.974 335.807 211.974 335.533C211.974 335.305 211.878 335.114 211.687 334.959C211.495 334.804 211.215 334.692 210.846 334.624C209.934 334.464 209.296 334.205 208.932 333.845C208.567 333.48 208.385 333.031 208.385 332.498C208.385 331.819 208.631 331.283 209.123 330.892C209.615 330.5 210.235 330.304 210.982 330.304C211.461 330.304 211.908 330.388 212.322 330.557C212.737 330.725 213.076 330.983 213.341 331.329L212.397 332.184C212.179 331.965 211.958 331.801 211.734 331.691C211.511 331.582 211.242 331.527 210.928 331.527C210.6 331.527 210.349 331.6 210.176 331.746C210.003 331.892 209.916 332.081 209.916 332.313C209.916 332.541 210.005 332.719 210.183 332.847C210.365 332.974 210.704 333.086 211.201 333.182C211.976 333.314 212.555 333.562 212.938 333.927C213.325 334.291 213.519 334.774 213.519 335.376C213.519 336.05 213.268 336.595 212.767 337.01C212.27 337.424 211.62 337.632 210.818 337.632C210.235 337.632 209.704 337.522 209.226 337.304C208.747 337.085 208.378 336.766 208.118 336.347ZM220.997 334.371H216.185C216.203 335.032 216.385 335.529 216.731 335.861C217.078 336.194 217.506 336.36 218.017 336.36C218.372 336.36 218.689 336.276 218.967 336.107C219.245 335.939 219.484 335.688 219.685 335.355L220.929 336.039C220.605 336.549 220.195 336.944 219.698 337.222C219.206 337.495 218.627 337.632 217.962 337.632C216.923 337.632 216.091 337.322 215.467 336.702C214.847 336.082 214.537 335.194 214.537 334.036C214.537 332.924 214.856 332.024 215.494 331.336C216.132 330.648 216.932 330.304 217.894 330.304C218.878 330.304 219.641 330.6 220.184 331.192C220.726 331.78 220.997 332.635 220.997 333.756V334.371ZM219.425 333.223C219.425 332.68 219.29 332.263 219.021 331.972C218.753 331.675 218.386 331.527 217.921 331.527C217.433 331.527 217.037 331.689 216.731 332.013C216.426 332.336 216.244 332.74 216.185 333.223H219.425ZM222.439 337.468V327.104H224.073V337.468H222.439ZM225.994 337.468V327.104H227.628V337.468H225.994Z" fill="#424242"/>
<path d="M165.646 390.585V394.468H163.732V383.265H167.217C168.514 383.265 169.508 383.567 170.201 384.171C170.899 384.77 171.248 385.64 171.248 386.78C171.248 387.936 170.86 388.861 170.084 389.554C169.308 390.241 168.264 390.585 166.951 390.585H165.646ZM165.646 384.827V389.03H166.865C167.631 389.03 168.217 388.84 168.623 388.46C169.035 388.08 169.24 387.543 169.24 386.851C169.24 386.189 169.048 385.686 168.662 385.343C168.277 384.999 167.712 384.827 166.967 384.827H165.646ZM172.764 394.468V382.624H174.631V394.468H172.764ZM182.982 394.468H181.178V393.483H181.146C180.86 393.864 180.514 394.155 180.107 394.358C179.701 394.556 179.251 394.655 178.756 394.655C178.016 394.655 177.41 394.444 176.936 394.022C176.467 393.601 176.232 393.046 176.232 392.358C176.232 391.629 176.467 391.041 176.936 390.593C177.41 390.145 178.087 389.871 178.967 389.772L181.186 389.522V389.147C181.186 388.663 181.048 388.301 180.771 388.061C180.501 387.817 180.141 387.694 179.693 387.694C179.261 387.694 178.894 387.793 178.592 387.991C178.29 388.184 178.037 388.465 177.834 388.835L176.459 388.116C176.73 387.58 177.157 387.14 177.74 386.796C178.329 386.452 179.027 386.28 179.834 386.28C180.855 386.28 181.633 386.546 182.17 387.077C182.712 387.608 182.982 388.384 182.982 389.405V394.468ZM181.186 391.218V390.788L179.271 390.991C178.839 391.038 178.521 391.16 178.318 391.358C178.12 391.556 178.021 391.819 178.021 392.147C178.021 392.481 178.136 392.749 178.365 392.952C178.594 393.155 178.889 393.257 179.248 393.257C179.826 393.257 180.292 393.064 180.646 392.679C181.006 392.293 181.186 391.806 181.186 391.218ZM192.193 394.468H190.326V389.796C190.326 389.15 190.196 388.655 189.936 388.311C189.675 387.968 189.285 387.796 188.764 387.796C188.212 387.796 187.758 387.996 187.404 388.397C187.055 388.793 186.881 389.296 186.881 389.905V394.468H185.014V386.468H186.881V387.554H186.912C187.193 387.147 187.558 386.835 188.006 386.616C188.459 386.392 188.946 386.28 189.467 386.28C190.357 386.28 191.035 386.564 191.498 387.132C191.962 387.694 192.193 388.499 192.193 389.546V394.468ZM199.881 393.608H199.85V394.468H197.982V382.624H199.85V387.561H199.881C200.188 387.15 200.568 386.835 201.021 386.616C201.475 386.392 201.993 386.28 202.576 386.28C203.644 386.28 204.472 386.637 205.061 387.351C205.649 388.059 205.943 389.033 205.943 390.272C205.943 391.601 205.615 392.663 204.959 393.46C204.308 394.257 203.42 394.655 202.295 394.655C201.764 394.655 201.295 394.567 200.889 394.39C200.482 394.207 200.146 393.947 199.881 393.608ZM199.834 390.124V391.093C199.834 391.671 200.021 392.158 200.396 392.554C200.777 392.944 201.269 393.14 201.873 393.14C202.561 393.14 203.089 392.892 203.459 392.397C203.834 391.897 204.021 391.205 204.021 390.319C204.021 389.512 203.847 388.89 203.498 388.452C203.154 388.015 202.67 387.796 202.045 387.796C201.394 387.796 200.863 388.015 200.451 388.452C200.04 388.89 199.834 389.447 199.834 390.124ZM214.49 390.929H208.99C209.011 391.684 209.219 392.252 209.615 392.632C210.011 393.012 210.501 393.202 211.084 393.202C211.49 393.202 211.852 393.106 212.17 392.913C212.488 392.72 212.761 392.434 212.99 392.054L214.412 392.835C214.042 393.418 213.574 393.869 213.006 394.186C212.443 394.499 211.782 394.655 211.021 394.655C209.834 394.655 208.883 394.301 208.17 393.593C207.462 392.884 207.107 391.869 207.107 390.546C207.107 389.275 207.472 388.246 208.201 387.46C208.93 386.673 209.844 386.28 210.943 386.28C212.068 386.28 212.941 386.619 213.561 387.296C214.18 387.968 214.49 388.944 214.49 390.226V390.929ZM212.693 389.616C212.693 388.996 212.54 388.52 212.232 388.186C211.925 387.848 211.506 387.679 210.975 387.679C210.417 387.679 209.964 387.864 209.615 388.233C209.266 388.603 209.058 389.064 208.99 389.616H212.693ZM223.318 394.468H221.451V389.796C221.451 389.15 221.321 388.655 221.061 388.311C220.8 387.968 220.41 387.796 219.889 387.796C219.337 387.796 218.883 387.996 218.529 388.397C218.18 388.793 218.006 389.296 218.006 389.905V394.468H216.139V386.468H218.006V387.554H218.037C218.318 387.147 218.683 386.835 219.131 386.616C219.584 386.392 220.071 386.28 220.592 386.28C221.482 386.28 222.16 386.564 222.623 387.132C223.087 387.694 223.318 388.499 223.318 389.546V394.468ZM232.225 390.929H226.725C226.745 391.684 226.954 392.252 227.35 392.632C227.745 393.012 228.235 393.202 228.818 393.202C229.225 393.202 229.587 393.106 229.904 392.913C230.222 392.72 230.495 392.434 230.725 392.054L232.146 392.835C231.777 393.418 231.308 393.869 230.74 394.186C230.178 394.499 229.516 394.655 228.756 394.655C227.568 394.655 226.618 394.301 225.904 393.593C225.196 392.884 224.842 391.869 224.842 390.546C224.842 389.275 225.206 388.246 225.936 387.46C226.665 386.673 227.579 386.28 228.678 386.28C229.803 386.28 230.675 386.619 231.295 387.296C231.915 387.968 232.225 388.944 232.225 390.226V390.929ZM230.428 389.616C230.428 388.996 230.274 388.52 229.967 388.186C229.66 387.848 229.24 387.679 228.709 387.679C228.152 387.679 227.699 387.864 227.35 388.233C227.001 388.603 226.792 389.064 226.725 389.616H230.428ZM238.232 384.226C238.097 384.137 237.956 384.069 237.811 384.022C237.67 383.97 237.514 383.944 237.342 383.944C237.008 383.944 236.751 384.048 236.568 384.257C236.391 384.465 236.303 384.775 236.303 385.186V386.468H238.154V387.921H236.303V394.468H234.443V387.921H233.084V386.468H234.443V385.179C234.443 384.335 234.688 383.668 235.178 383.179C235.673 382.689 236.368 382.444 237.264 382.444C237.566 382.444 237.86 382.481 238.146 382.554C238.433 382.621 238.717 382.728 238.998 382.874L238.232 384.226ZM240.342 384.968C240.003 384.968 239.727 384.858 239.514 384.64C239.3 384.421 239.193 384.158 239.193 383.851C239.193 383.533 239.3 383.27 239.514 383.061C239.727 382.848 240.003 382.741 240.342 382.741C240.686 382.741 240.964 382.848 241.178 383.061C241.396 383.27 241.506 383.533 241.506 383.851C241.506 384.168 241.396 384.434 241.178 384.647C240.964 384.861 240.686 384.968 240.342 384.968ZM241.271 394.468H239.396V386.468H241.271V394.468ZM248.217 394.093C248.003 394.265 247.73 394.4 247.396 394.499C247.068 394.603 246.712 394.655 246.326 394.655C245.545 394.655 244.954 394.455 244.553 394.054C244.157 393.653 243.959 393.064 243.959 392.288V387.921H242.623V386.468H243.959V384.507L245.826 384.171V386.468H247.865V387.921H245.826V392.03C245.826 392.421 245.904 392.71 246.061 392.897C246.217 393.08 246.436 393.171 246.717 393.171C246.863 393.171 247.006 393.145 247.146 393.093C247.292 393.041 247.456 392.955 247.639 392.835L248.217 394.093ZM249.115 393.186L250.248 392.179C250.535 392.569 250.842 392.845 251.17 393.007C251.503 393.168 251.852 393.249 252.217 393.249C252.633 393.249 252.954 393.163 253.178 392.991C253.407 392.814 253.521 392.569 253.521 392.257C253.521 391.996 253.412 391.778 253.193 391.601C252.975 391.423 252.654 391.296 252.232 391.218C251.191 391.035 250.462 390.739 250.045 390.327C249.628 389.91 249.42 389.397 249.42 388.788C249.42 388.012 249.701 387.4 250.264 386.952C250.826 386.504 251.535 386.28 252.389 386.28C252.936 386.28 253.446 386.377 253.92 386.569C254.394 386.762 254.782 387.056 255.084 387.452L254.006 388.429C253.756 388.179 253.503 387.991 253.248 387.866C252.993 387.741 252.686 387.679 252.326 387.679C251.951 387.679 251.665 387.762 251.467 387.929C251.269 388.095 251.17 388.311 251.17 388.577C251.17 388.838 251.271 389.041 251.475 389.186C251.683 389.332 252.071 389.46 252.639 389.569C253.524 389.72 254.186 390.004 254.623 390.421C255.066 390.838 255.287 391.39 255.287 392.077C255.287 392.848 255.001 393.47 254.428 393.944C253.86 394.418 253.118 394.655 252.201 394.655C251.535 394.655 250.928 394.53 250.381 394.28C249.834 394.03 249.412 393.666 249.115 393.186Z" fill="#424242"/>
<rect x="63.9355" y="481.968" width="291" height="85" rx="13" stroke="#3E45C9" stroke-width="2" stroke-dasharray="8 6"/>
<path d="M153.693 527.843L155.35 527.007C155.584 527.507 155.902 527.882 156.303 528.132C156.709 528.382 157.178 528.507 157.709 528.507C158.324 528.507 158.8 528.371 159.139 528.101C159.477 527.825 159.646 527.426 159.646 526.905C159.646 526.436 159.493 526.064 159.186 525.788C158.883 525.507 158.355 525.28 157.6 525.108C156.402 524.843 155.54 524.444 155.014 523.913C154.493 523.377 154.232 522.697 154.232 521.874C154.232 520.843 154.592 520.035 155.311 519.452C156.029 518.869 156.92 518.577 157.982 518.577C158.779 518.577 159.48 518.752 160.084 519.101C160.693 519.444 161.18 519.957 161.545 520.64L159.936 521.421C159.691 520.983 159.404 520.671 159.076 520.483C158.753 520.291 158.365 520.194 157.912 520.194C157.344 520.194 156.907 520.325 156.6 520.585C156.298 520.845 156.146 521.192 156.146 521.624C156.146 522.035 156.285 522.366 156.561 522.616C156.837 522.866 157.357 523.082 158.123 523.265C159.326 523.541 160.201 523.963 160.748 524.53C161.295 525.093 161.568 525.825 161.568 526.726C161.568 527.731 161.235 528.554 160.568 529.194C159.907 529.835 158.959 530.155 157.725 530.155C156.777 530.155 155.951 529.955 155.248 529.554C154.545 529.147 154.027 528.577 153.693 527.843ZM174.029 521.968L171.678 529.968H169.717L168.303 524.819C168.266 524.684 168.238 524.577 168.217 524.499C168.201 524.416 168.183 524.311 168.162 524.186H168.123C168.102 524.311 168.081 524.416 168.061 524.499C168.04 524.582 168.011 524.681 167.975 524.796L166.443 529.968H164.514L162.17 521.968H164.068L165.467 527.397C165.493 527.496 165.514 527.598 165.529 527.702C165.55 527.801 165.571 527.918 165.592 528.054H165.639C165.665 527.913 165.688 527.791 165.709 527.686C165.735 527.582 165.764 527.478 165.795 527.374L167.396 521.968H169.17L170.607 527.405C170.623 527.468 170.641 527.554 170.662 527.663C170.688 527.772 170.714 527.905 170.74 528.061H170.795C170.821 527.91 170.842 527.796 170.857 527.718C170.873 527.634 170.896 527.53 170.928 527.405L172.279 521.968H174.029ZM176.186 520.468C175.847 520.468 175.571 520.358 175.357 520.14C175.144 519.921 175.037 519.658 175.037 519.351C175.037 519.033 175.144 518.77 175.357 518.561C175.571 518.348 175.847 518.241 176.186 518.241C176.529 518.241 176.808 518.348 177.021 518.561C177.24 518.77 177.35 519.033 177.35 519.351C177.35 519.668 177.24 519.934 177.021 520.147C176.808 520.361 176.529 520.468 176.186 520.468ZM177.115 529.968H175.24V521.968H177.115V529.968ZM184.061 529.593C183.847 529.765 183.574 529.9 183.24 529.999C182.912 530.103 182.555 530.155 182.17 530.155C181.389 530.155 180.798 529.955 180.396 529.554C180.001 529.153 179.803 528.564 179.803 527.788V523.421H178.467V521.968H179.803V520.007L181.67 519.671V521.968H183.709V523.421H181.67V527.53C181.67 527.921 181.748 528.21 181.904 528.397C182.061 528.58 182.279 528.671 182.561 528.671C182.706 528.671 182.85 528.645 182.99 528.593C183.136 528.541 183.3 528.455 183.482 528.335L184.061 529.593ZM192.248 528.444C191.889 529.017 191.428 529.447 190.865 529.733C190.303 530.015 189.678 530.155 188.99 530.155C187.699 530.155 186.691 529.785 185.967 529.046C185.248 528.301 184.889 527.325 184.889 526.116C184.889 524.772 185.274 523.715 186.045 522.944C186.816 522.168 187.816 521.78 189.045 521.78C189.748 521.78 190.378 521.931 190.936 522.233C191.498 522.53 191.92 522.97 192.201 523.554L190.732 524.28C190.493 523.921 190.232 523.666 189.951 523.515C189.675 523.364 189.35 523.288 188.975 523.288C188.344 523.288 187.824 523.525 187.412 523.999C187.001 524.468 186.795 525.129 186.795 525.983C186.795 526.822 186.998 527.468 187.404 527.921C187.811 528.374 188.352 528.601 189.029 528.601C189.383 528.601 189.709 528.528 190.006 528.382C190.303 528.231 190.568 527.981 190.803 527.632L192.248 528.444ZM201.029 529.968H199.162V525.288C199.162 524.632 199.032 524.137 198.771 523.804C198.511 523.465 198.126 523.296 197.615 523.296C197.058 523.296 196.605 523.496 196.256 523.897C195.912 524.293 195.74 524.798 195.74 525.413V529.968H193.873V518.124H195.74V523.046H195.771C196.053 522.645 196.417 522.335 196.865 522.116C197.318 521.892 197.803 521.78 198.318 521.78C199.183 521.78 199.85 522.056 200.318 522.608C200.792 523.155 201.029 523.965 201.029 525.038V529.968ZM212.967 529.968H211.162V528.983H211.131C210.844 529.364 210.498 529.655 210.092 529.858C209.686 530.056 209.235 530.155 208.74 530.155C208.001 530.155 207.394 529.944 206.92 529.522C206.451 529.101 206.217 528.546 206.217 527.858C206.217 527.129 206.451 526.541 206.92 526.093C207.394 525.645 208.071 525.371 208.951 525.272L211.17 525.022V524.647C211.17 524.163 211.032 523.801 210.756 523.561C210.485 523.317 210.126 523.194 209.678 523.194C209.245 523.194 208.878 523.293 208.576 523.491C208.274 523.684 208.021 523.965 207.818 524.335L206.443 523.616C206.714 523.08 207.141 522.64 207.725 522.296C208.313 521.952 209.011 521.78 209.818 521.78C210.839 521.78 211.618 522.046 212.154 522.577C212.696 523.108 212.967 523.884 212.967 524.905V529.968ZM211.17 526.718V526.288L209.256 526.491C208.824 526.538 208.506 526.66 208.303 526.858C208.105 527.056 208.006 527.319 208.006 527.647C208.006 527.981 208.12 528.249 208.35 528.452C208.579 528.655 208.873 528.757 209.232 528.757C209.811 528.757 210.277 528.564 210.631 528.179C210.99 527.793 211.17 527.306 211.17 526.718ZM221.842 528.444C221.482 529.017 221.021 529.447 220.459 529.733C219.896 530.015 219.271 530.155 218.584 530.155C217.292 530.155 216.285 529.785 215.561 529.046C214.842 528.301 214.482 527.325 214.482 526.116C214.482 524.772 214.868 523.715 215.639 522.944C216.41 522.168 217.41 521.78 218.639 521.78C219.342 521.78 219.972 521.931 220.529 522.233C221.092 522.53 221.514 522.97 221.795 523.554L220.326 524.28C220.087 523.921 219.826 523.666 219.545 523.515C219.269 523.364 218.943 523.288 218.568 523.288C217.938 523.288 217.417 523.525 217.006 523.999C216.594 524.468 216.389 525.129 216.389 525.983C216.389 526.822 216.592 527.468 216.998 527.921C217.404 528.374 217.946 528.601 218.623 528.601C218.977 528.601 219.303 528.528 219.6 528.382C219.896 528.231 220.162 527.981 220.396 527.632L221.842 528.444ZM230.311 528.444C229.951 529.017 229.49 529.447 228.928 529.733C228.365 530.015 227.74 530.155 227.053 530.155C225.761 530.155 224.753 529.785 224.029 529.046C223.311 528.301 222.951 527.325 222.951 526.116C222.951 524.772 223.337 523.715 224.107 522.944C224.878 522.168 225.878 521.78 227.107 521.78C227.811 521.78 228.441 521.931 228.998 522.233C229.561 522.53 229.982 522.97 230.264 523.554L228.795 524.28C228.555 523.921 228.295 523.666 228.014 523.515C227.738 523.364 227.412 523.288 227.037 523.288C226.407 523.288 225.886 523.525 225.475 523.999C225.063 524.468 224.857 525.129 224.857 525.983C224.857 526.822 225.061 527.468 225.467 527.921C225.873 528.374 226.415 528.601 227.092 528.601C227.446 528.601 227.771 528.528 228.068 528.382C228.365 528.231 228.631 527.981 228.865 527.632L230.311 528.444ZM235.568 530.155C234.298 530.155 233.287 529.783 232.537 529.038C231.792 528.293 231.42 527.291 231.42 526.03C231.425 524.754 231.821 523.728 232.607 522.952C233.394 522.171 234.42 521.78 235.686 521.78C236.951 521.78 237.949 522.163 238.678 522.929C239.412 523.694 239.779 524.684 239.779 525.897C239.779 527.137 239.391 528.158 238.615 528.96C237.844 529.757 236.829 530.155 235.568 530.155ZM235.639 528.64C236.347 528.64 236.894 528.397 237.279 527.913C237.67 527.423 237.865 526.767 237.865 525.944C237.865 525.142 237.67 524.502 237.279 524.022C236.894 523.538 236.344 523.296 235.631 523.296C234.933 523.296 234.373 523.546 233.951 524.046C233.535 524.546 233.326 525.194 233.326 525.991C233.326 526.814 233.532 527.463 233.943 527.936C234.355 528.405 234.92 528.64 235.639 528.64ZM248.482 529.968H246.607V528.882H246.576C246.321 529.272 245.972 529.582 245.529 529.811C245.087 530.041 244.623 530.155 244.139 530.155C243.206 530.155 242.501 529.879 242.021 529.327C241.542 528.77 241.303 527.957 241.303 526.89V521.968H243.162V526.64C243.162 527.306 243.29 527.806 243.545 528.14C243.8 528.473 244.199 528.64 244.74 528.64C245.287 528.64 245.735 528.442 246.084 528.046C246.433 527.645 246.607 527.14 246.607 526.53V521.968H248.482V529.968ZM257.85 529.968H255.982V525.296C255.982 524.65 255.852 524.155 255.592 523.811C255.331 523.468 254.941 523.296 254.42 523.296C253.868 523.296 253.415 523.496 253.061 523.897C252.712 524.293 252.537 524.796 252.537 525.405V529.968H250.67V521.968H252.537V523.054H252.568C252.85 522.647 253.214 522.335 253.662 522.116C254.115 521.892 254.602 521.78 255.123 521.78C256.014 521.78 256.691 522.064 257.154 522.632C257.618 523.194 257.85 523.999 257.85 525.046V529.968ZM264.639 529.593C264.425 529.765 264.152 529.9 263.818 529.999C263.49 530.103 263.133 530.155 262.748 530.155C261.967 530.155 261.376 529.955 260.975 529.554C260.579 529.153 260.381 528.564 260.381 527.788V523.421H259.045V521.968H260.381V520.007L262.248 519.671V521.968H264.287V523.421H262.248V527.53C262.248 527.921 262.326 528.21 262.482 528.397C262.639 528.58 262.857 528.671 263.139 528.671C263.285 528.671 263.428 528.645 263.568 528.593C263.714 528.541 263.878 528.455 264.061 528.335L264.639 529.593Z" fill="#424242"/>
<path d="M61.3163 46.5415H55.1672V35.4359H57.0103V44.9849H61.3163V46.5415ZM66.2417 46.7274C65.0181 46.7274 64.0397 46.3582 63.3066 45.6199C62.5786 44.8764 62.2146 43.8929 62.2146 42.6693C62.2146 41.3372 62.5941 40.2969 63.3531 39.5483C64.1172 38.7996 65.1446 38.4253 66.4353 38.4253C67.6745 38.4253 68.6399 38.7893 69.3318 39.5173C70.0236 40.2453 70.3695 41.2546 70.3695 42.5454C70.3695 43.8103 69.9952 44.8248 69.2466 45.5889C68.5031 46.3479 67.5015 46.7274 66.2417 46.7274ZM66.3269 39.858C65.6248 39.858 65.0697 40.1033 64.6619 40.5938C64.254 41.0842 64.0501 41.7606 64.0501 42.6228C64.0501 43.454 64.2566 44.1097 64.6696 44.5899C65.0826 45.0649 65.6351 45.3024 66.3269 45.3024C67.0343 45.3024 67.5764 45.0675 67.9533 44.5976C68.3353 44.1278 68.5264 43.4592 68.5264 42.5918C68.5264 41.7193 68.3353 41.0455 67.9533 40.5705C67.5764 40.0955 67.0343 39.858 66.3269 39.858ZM79.4228 45.9065C79.4228 48.8184 77.9591 50.2743 75.0317 50.2743C73.9991 50.2743 73.0982 50.1014 72.3289 49.7555V48.1136C73.1963 48.6093 74.0198 48.8571 74.7994 48.8571C76.6839 48.8571 77.6261 47.9303 77.6261 46.0768V45.2095H77.5951C77.0014 46.2214 76.1082 46.7274 74.9155 46.7274C73.9501 46.7274 73.1704 46.3763 72.5767 45.6741C71.9881 44.9668 71.6938 44.0194 71.6938 42.8319C71.6938 41.4844 72.0114 40.4131 72.6464 39.618C73.2815 38.8229 74.154 38.4253 75.264 38.4253C76.3121 38.4253 77.0891 38.8538 77.5951 39.7109H77.6261V38.6112H79.4228V45.9065ZM77.6416 42.9094V41.8793C77.6416 41.3217 77.4557 40.8467 77.084 40.4544C76.7174 40.0568 76.2579 39.858 75.7055 39.858C75.024 39.858 74.4896 40.111 74.1024 40.617C73.7203 41.1178 73.5293 41.82 73.5293 42.7235C73.5293 43.5031 73.7126 44.1278 74.0791 44.5976C74.4509 45.0623 74.9413 45.2946 75.5506 45.2946C76.1701 45.2946 76.6735 45.0726 77.0607 44.6286C77.448 44.1794 77.6416 43.6064 77.6416 42.9094ZM85.2776 46.7274C84.054 46.7274 83.0756 46.3582 82.3425 45.6199C81.6145 44.8764 81.2505 43.8929 81.2505 42.6693C81.2505 41.3372 81.63 40.2969 82.3889 39.5483C83.1531 38.7996 84.1805 38.4253 85.4712 38.4253C86.7103 38.4253 87.6758 38.7893 88.3677 39.5173C89.0595 40.2453 89.4054 41.2546 89.4054 42.5454C89.4054 43.8103 89.0311 44.8248 88.2825 45.5889C87.539 46.3479 86.5374 46.7274 85.2776 46.7274ZM85.3628 39.858C84.6606 39.858 84.1056 40.1033 83.6978 40.5938C83.2899 41.0842 83.0859 41.7606 83.0859 42.6228C83.0859 43.454 83.2925 44.1097 83.7055 44.5899C84.1185 45.0649 84.671 45.3024 85.3628 45.3024C86.0701 45.3024 86.6123 45.0675 86.9891 44.5976C87.3712 44.1278 87.5622 43.4592 87.5622 42.5918C87.5622 41.7193 87.3712 41.0455 86.9891 40.5705C86.6123 40.0955 86.0701 39.858 85.3628 39.858Z" fill="#616161"/>
<path d="M308.012 44.7706V43.2372C308.187 43.3921 308.396 43.5315 308.639 43.6554C308.887 43.7793 309.145 43.8852 309.414 43.9729C309.687 44.0555 309.961 44.1201 310.234 44.1665C310.508 44.213 310.761 44.2362 310.993 44.2362C311.794 44.2362 312.39 44.0891 312.782 43.7948C313.18 43.4954 313.379 43.0668 313.379 42.5092C313.379 42.2098 313.312 41.949 313.177 41.727C313.048 41.505 312.868 41.3037 312.635 41.123C312.403 40.9371 312.127 40.7616 311.807 40.5963C311.492 40.426 311.151 40.2478 310.784 40.062C310.397 39.8658 310.036 39.667 309.7 39.4657C309.364 39.2643 309.073 39.0423 308.825 38.7996C308.577 38.557 308.381 38.2833 308.236 37.9787C308.097 37.6689 308.027 37.3075 308.027 36.8945C308.027 36.3885 308.138 35.9497 308.36 35.5779C308.582 35.201 308.874 34.8913 309.235 34.6486C309.597 34.4059 310.007 34.2252 310.467 34.1065C310.931 33.9877 311.404 33.9284 311.884 33.9284C312.979 33.9284 313.776 34.06 314.277 34.3233V35.787C313.621 35.3327 312.78 35.1055 311.752 35.1055C311.468 35.1055 311.184 35.1365 310.9 35.1985C310.617 35.2552 310.364 35.3508 310.142 35.485C309.92 35.6192 309.739 35.7922 309.599 36.0039C309.46 36.2156 309.39 36.4737 309.39 36.7783C309.39 37.0623 309.442 37.3075 309.545 37.514C309.654 37.7206 309.811 37.909 310.018 38.0794C310.224 38.2498 310.475 38.415 310.769 38.575C311.068 38.7351 311.412 38.9106 311.799 39.1017C312.196 39.2979 312.573 39.5044 312.93 39.7212C313.286 39.9381 313.598 40.1781 313.867 40.4415C314.135 40.7048 314.347 40.9965 314.502 41.3166C314.662 41.6367 314.742 42.0033 314.742 42.4163C314.742 42.9636 314.633 43.4282 314.416 43.8103C314.205 44.1872 313.916 44.4944 313.549 44.7319C313.188 44.9694 312.769 45.1398 312.294 45.243C311.819 45.3514 311.319 45.4057 310.792 45.4057C310.617 45.4057 310.4 45.3902 310.142 45.3592C309.883 45.3334 309.62 45.2921 309.352 45.2353C309.083 45.1836 308.828 45.1191 308.585 45.0417C308.347 44.9591 308.156 44.8687 308.012 44.7706ZM317.437 35.2759C317.21 35.2759 317.016 35.1985 316.856 35.0436C316.696 34.8887 316.616 34.6925 316.616 34.455C316.616 34.2175 316.696 34.0213 316.856 33.8664C317.016 33.7064 317.21 33.6263 317.437 33.6263C317.669 33.6263 317.865 33.7064 318.025 33.8664C318.191 34.0213 318.273 34.2175 318.273 34.455C318.273 34.6822 318.191 34.8758 318.025 35.0358C317.865 35.1959 317.669 35.2759 317.437 35.2759ZM318.056 45.2198H316.786V37.2895H318.056V45.2198ZM327.396 44.5847C327.396 47.4967 326.002 48.9526 323.214 48.9526C322.233 48.9526 321.376 48.7668 320.643 48.395V47.1249C321.536 47.6206 322.388 47.8684 323.199 47.8684C325.15 47.8684 326.126 46.8306 326.126 44.7551V43.8877H326.095C325.491 44.8997 324.582 45.4057 323.369 45.4057C322.383 45.4057 321.588 45.0546 320.984 44.3524C320.385 43.6451 320.085 42.6977 320.085 41.5102C320.085 40.1627 320.408 39.0913 321.053 38.2962C321.704 37.5011 322.592 37.1036 323.718 37.1036C324.786 37.1036 325.579 37.5321 326.095 38.3892H326.126V37.2895H327.396V44.5847ZM326.126 41.6341V40.4647C326.126 39.8348 325.912 39.2953 325.483 38.8461C325.06 38.3969 324.531 38.1723 323.896 38.1723C323.111 38.1723 322.497 38.4589 322.052 39.032C321.608 39.5999 321.386 40.3976 321.386 41.425C321.386 42.3079 321.598 43.0152 322.022 43.547C322.45 44.0736 323.015 44.3369 323.718 44.3369C324.43 44.3369 325.008 44.0839 325.452 43.578C325.901 43.072 326.126 42.424 326.126 41.6341ZM336.55 45.2198H335.28V40.697C335.28 39.0139 334.666 38.1723 333.437 38.1723C332.802 38.1723 332.275 38.4124 331.857 38.8926C331.444 39.3676 331.237 39.969 331.237 40.697V45.2198H329.967V37.2895H331.237V38.606H331.268C331.867 37.6044 332.735 37.1036 333.871 37.1036C334.738 37.1036 335.401 37.385 335.861 37.9477C336.32 38.5053 336.55 39.3133 336.55 40.3718V45.2198ZM346.618 45.4057C345.446 45.4057 344.509 45.0365 343.807 44.2982C343.11 43.5547 342.761 42.5712 342.761 41.3476C342.761 40.0155 343.125 38.9752 343.853 38.2265C344.581 37.4779 345.565 37.1036 346.804 37.1036C347.986 37.1036 348.908 37.4676 349.569 38.1956C350.235 38.9235 350.568 39.9329 350.568 41.2236C350.568 42.4886 350.209 43.5031 349.491 44.2672C348.779 45.0262 347.821 45.4057 346.618 45.4057ZM346.711 38.1723C345.895 38.1723 345.25 38.4511 344.775 39.0087C344.3 39.5612 344.062 40.3253 344.062 41.3011C344.062 42.2408 344.302 42.9816 344.782 43.5238C345.263 44.0659 345.905 44.3369 346.711 44.3369C347.532 44.3369 348.162 44.071 348.601 43.5392C349.045 43.0075 349.267 42.2511 349.267 41.2701C349.267 40.2788 349.045 39.5147 348.601 38.9778C348.162 38.4408 347.532 38.1723 346.711 38.1723ZM359.009 45.2198H357.739V43.9652H357.708C357.181 44.9255 356.366 45.4057 355.261 45.4057C353.371 45.4057 352.426 44.2801 352.426 42.0291V37.2895H353.689V41.8277C353.689 43.5005 354.329 44.3369 355.609 44.3369C356.229 44.3369 356.737 44.1097 357.135 43.6554C357.538 43.1959 357.739 42.597 357.739 41.8587V37.2895H359.009V45.2198ZM365.259 45.1423C364.959 45.3076 364.564 45.3902 364.074 45.3902C362.685 45.3902 361.991 44.6157 361.991 43.0668V38.3737H360.628V37.2895H361.991V35.3533L363.261 34.9429V37.2895H365.259V38.3737H363.261V42.8422C363.261 43.374 363.351 43.7535 363.532 43.9807C363.713 44.2078 364.012 44.3214 364.43 44.3214C364.75 44.3214 365.027 44.2337 365.259 44.0581V45.1423Z" fill="#616161"/>
</g>
<defs>
<filter id="filter0_dd_84_29837" x="6.29425e-05" y="9.53674e-07" width="418.871" height="662.871" filterUnits="userSpaceOnUse" color-interpolation-filters="sRGB">
<feFlood flood-opacity="0" result="BackgroundImageFix"/>
<feColorMatrix in="SourceAlpha" type="matrix" values="0 0 0 0 0 0 0 0 0 0 0 0 0 0 0 0 0 0 127 0" result="hardAlpha"/>
<feOffset/>
<feGaussianBlur stdDeviation="1.49597"/>
<feComposite in2="hardAlpha" operator="out"/>
<feColorMatrix type="matrix" values="0 0 0 0 0 0 0 0 0 0 0 0 0 0 0 0 0 0 0.12 0"/>
<feBlend mode="normal" in2="BackgroundImageFix" result="effect1_dropShadow_84_29837"/>
<feColorMatrix in="SourceAlpha" type="matrix" values="0 0 0 0 0 0 0 0 0 0 0 0 0 0 0 0 0 0 127 0" result="hardAlpha"/>
<feOffset dy="11.9677"/>
<feGaussianBlur stdDeviation="11.9677"/>
<feComposite in2="hardAlpha" operator="out"/>
<feColorMatrix type="matrix" values="0 0 0 0 0 0 0 0 0 0 0 0 0 0 0 0 0 0 0.14 0"/>
<feBlend mode="normal" in2="effect1_dropShadow_84_29837" result="effect2_dropShadow_84_29837"/>
<feBlend mode="normal" in="SourceGraphic" in2="effect2_dropShadow_84_29837" result="shape"/>
</filter>
</defs>
</svg>
